<svg xmlns="http://www.w3.org/2000/svg" width="5472" height="1842"><path d="M0 0 C5.88627099 0.00676305 11.77251604 -0.00398279 17.65878134 -0.01239584 C27.95581564 -0.02472335 38.2528083 -0.02609514 48.54984711 -0.01984541 C59.58701129 -0.01319493 70.6241469 -0.01312109 81.66131066 -0.02089254 C82.36105546 -0.02138054 83.06080025 -0.02186854 83.78174944 -0.02237133 C86.63218391 -0.02437974 89.48261833 -0.02643287 92.33305272 -0.02854307 C121.20006134 -0.04989078 150.0670488 -0.05200699 178.93406333 -0.04648603 C182.91659069 -0.04573023 186.89911806 -0.04500262 190.88164543 -0.04430406 C191.67277692 -0.04416496 192.46390841 -0.04402587 193.27901358 -0.04388257 C210.84450715 -0.04092497 228.40999819 -0.0439483 245.9754913 -0.04820034 C248.38253843 -0.0487825 250.78958556 -0.04935135 253.1966327 -0.04991598 C259.64982898 -0.05143105 266.10302526 -0.05295797 272.55622153 -0.05450898 C317.58033887 -0.06525887 362.60445387 -0.06997464 407.62857197 -0.06203882 C408.90046077 -0.06181636 408.90046077 -0.06181636 410.19804428 -0.06158941 C419.65239241 -0.05993055 429.10674052 -0.05818096 438.56108863 -0.0563964 C439.41460683 -0.05623537 440.26812502 -0.05607435 441.14750741 -0.05590845 C448.07172622 -0.05460118 448.07172622 -0.05460118 451.5025296 -0.05394726 C506.0897693 -0.04355727 560.67697674 -0.05132218 615.26421212 -0.07494871 C629.01961717 -0.08089258 642.77502224 -0.08678435 656.53042744 -0.09235804 C657.80105455 -0.09287369 657.80105455 -0.09287369 659.0973509 -0.09339976 C685.223222 -0.10393458 711.34909042 -0.10952139 737.47496365 -0.10991518 C738.29571925 -0.10992796 739.11647484 -0.10994074 739.96210182 -0.10995391 C757.98327497 -0.11018225 776.00444789 -0.10917567 794.0256209 -0.10704486 C800.47448969 -0.10629016 806.92335848 -0.10561194 813.37222728 -0.10496471 C814.97640061 -0.10480202 816.58057394 -0.10463435 818.18474727 -0.10446169 C843.69461535 -0.1017459 869.2044638 -0.11027165 894.71432766 -0.1243158 C921.13575689 -0.13875513 947.55714892 -0.13823314 973.97857691 -0.12094108 C976.82251832 -0.11913708 979.66645976 -0.11739687 982.51040123 -0.11570684 C983.55725576 -0.11507609 983.55725576 -0.11507609 984.62525886 -0.1144326 C995.62509174 -0.10816284 1006.62487303 -0.11519566 1017.62469863 -0.12791604 C1028.47076602 -0.14017254 1039.31674943 -0.13755725 1050.16281088 -0.12069573 C1055.9518825 -0.11209823 1061.74076741 -0.10955465 1067.52982915 -0.12496505 C1091.36165437 -0.18409041 1114.38395601 0.3089337 1137.9143586 4.39160402 C1139.62633613 4.66662889 1141.33872973 4.93908408 1143.05164544 5.20820393 C1177.56053649 10.63918233 1210.56403763 22.18821762 1241.9143586 37.39160402 C1243.45664163 38.11702203 1244.99952879 38.84115832 1246.54326485 39.56347902 C1261.63118571 46.73505518 1275.7367595 55.77764873 1289.5393586 65.14160402 C1290.42703927 65.74303225 1291.31471993 66.34446047 1292.22930001 66.96411379 C1298.35246034 71.17371462 1304.16314794 75.68954049 1309.9143586 80.39160402 C1310.9146711 81.19468996 1311.9149836 81.9977759 1312.9456086 82.82519777 C1319.11283369 87.83118903 1325.06319795 93.02089058 1330.9143586 98.39160402 C1331.96898691 99.35260648 1333.02367747 100.31354064 1334.0784211 101.27441652 C1343.49831113 109.88296443 1352.64893848 118.6514409 1360.9143586 128.39160402 C1362.09385079 129.73738527 1362.09385079 129.73738527 1363.2971711 131.11035402 C1371.41920737 140.4421518 1378.6905692 150.35669658 1385.9143586 160.39160402 C1386.35022286 160.98972902 1386.78608712 161.58785402 1387.23515938 162.20410402 C1416.67374477 202.63811647 1436.76571551 251.35450019 1446.4768586 300.26660402 C1446.63521187 301.0619858 1446.79356514 301.85736757 1446.956717 302.67685183 C1450.89854546 322.79161693 1453.37484765 342.71874838 1453.29467534 363.22561319 C1453.29811971 365.21853178 1453.30287374 367.21144845 1453.3087963 369.20436122 C1453.32118849 374.63079005 1453.31520951 380.05705964 1453.30596263 385.48348885 C1453.29920859 391.4061946 1453.30994099 397.32887438 1453.31835847 403.25157447 C1453.33069436 413.61564963 1453.332054 423.9796894 1453.32580803 434.34376772 C1453.31916061 445.45433615 1453.31907992 456.5648762 1453.32685517 467.6754442 C1453.32734317 468.37950168 1453.32783117 469.08355916 1453.32833395 469.80895172 C1453.33034233 472.6768948 1453.33239546 475.54483785 1453.33450569 478.41278086 C1453.35586087 507.46678762 1453.35796825 536.52077338 1453.35244865 565.57478602 C1453.35169287 569.58403674 1453.35096526 573.59328746 1453.35026668 577.60253819 C1453.35005804 578.79717989 1453.35005804 578.79717989 1453.34984519 580.01595577 C1453.3468883 597.69466949 1453.34991024 615.3733807 1453.35416297 633.05209397 C1453.35474513 635.47426262 1453.35531397 637.89643128 1453.3558786 640.31859993 C1453.35739367 646.81225872 1453.35892058 653.3059175 1453.36047161 659.79957628 C1453.3712226 705.11019364 1453.37593616 750.42080867 1453.36800145 795.73142679 C1453.36777899 797.01158987 1453.36777899 797.01158987 1453.36755204 798.31761483 C1453.36589316 807.83358527 1453.36414357 817.3495557 1453.36235903 826.86552611 C1453.362198 827.72461612 1453.36203698 828.58370612 1453.36187107 829.46882916 C1453.36056375 836.4385406 1453.36056375 836.4385406 1453.35990988 839.89145805 C1453.34952026 894.83308783 1453.35728363 949.77468557 1453.38091134 1004.71631106 C1453.38685517 1018.56024728 1453.39274691 1032.40418353 1453.39832066 1046.24811991 C1453.39866443 1047.1006463 1453.3990082 1047.9531727 1453.39936239 1048.83153322 C1453.40989671 1075.12396899 1453.415484 1101.41640209 1453.41587781 1127.70883997 C1453.41589059 1128.53479488 1453.41590337 1129.36074978 1453.41591654 1130.21173362 C1453.41614488 1148.34684642 1453.41513832 1166.48195898 1453.41300749 1184.61707165 C1453.41225278 1191.10670036 1453.41157456 1197.59632908 1453.41092733 1204.0859578 C1453.41076464 1205.70028511 1453.41059698 1207.31461242 1453.41042432 1208.92893972 C1453.40770808 1234.60446971 1453.41623619 1260.27998019 1453.43027842 1285.95550599 C1453.44471559 1312.54817867 1453.44419854 1339.1408144 1453.4269037 1365.73348585 C1453.42509969 1368.59544302 1453.42335948 1371.45740023 1453.42166947 1374.31935747 C1453.42124897 1375.02168548 1453.42082847 1375.72401348 1453.42039522 1376.44762415 C1453.41412362 1387.52057447 1453.42116116 1398.59347357 1453.43387867 1409.66641667 C1453.4461303 1420.58263311 1453.44352647 1431.4987661 1453.42665836 1442.41497663 C1453.4180564 1448.24235501 1453.41552839 1454.06954783 1453.43092767 1459.89691642 C1453.48881215 1483.40802243 1453.2179226 1506.21115737 1448.9143586 1529.39160402 C1448.75765554 1530.26964212 1448.60095248 1531.14768021 1448.43950085 1532.05232552 C1447.58924111 1536.81433703 1446.64243094 1541.54138712 1445.6018586 1546.26660402 C1445.45506661 1546.94508394 1445.30827462 1547.62356386 1445.15703438 1548.32260378 C1442.61929783 1560.01951772 1439.55040123 1571.49414491 1435.75859688 1582.8505884 C1434.94852927 1585.28875604 1434.17688196 1587.73630793 1433.41045235 1590.18847902 C1421.85807341 1626.11896114 1402.39389435 1661.97601817 1378.9143586 1691.39160402 C1377.67644336 1693.00696253 1376.44861689 1694.62968015 1375.22075509 1696.25268801 C1361.91753365 1713.78056348 1347.10018148 1730.87996574 1330.3987336 1745.25097902 C1328.41821386 1746.95746459 1326.4525729 1748.67748754 1324.4924836 1750.40722902 C1316.8730475 1757.10845833 1309.16551083 1763.47280874 1300.9143586 1769.39160402 C1300.1099836 1769.97039309 1299.3056086 1770.54918215 1298.4768586 1771.14551027 C1295.97313165 1772.92035619 1293.4482026 1774.66002295 1290.9143586 1776.39160402 C1289.82896798 1777.14054934 1288.74357735 1777.88949465 1287.6252961 1778.66113527 C1277.69391257 1785.44764855 1267.42063812 1791.54104837 1256.9143586 1797.39160402 C1256.11320626 1797.84148684 1255.31205391 1798.29136965 1254.48662423 1798.75488527 C1211.87164939 1822.50973872 1164.24098447 1835.90786581 1115.9143586 1841.39160402 C1115.19959577 1841.4785994 1114.48483295 1841.56559478 1113.74841064 1841.65522638 C1104.43024585 1842.65787248 1095.11160852 1842.53397671 1085.75271176 1842.5258251 C1083.79515428 1842.52778014 1081.8375972 1842.53016979 1079.88004072 1842.53295307 C1074.49587074 1842.53933725 1069.11171571 1842.53951596 1063.72754266 1842.53867566 C1057.87141685 1842.53884548 1052.01529633 1842.54475516 1046.15917318 1842.54991652 C1035.89329549 1842.55815184 1025.62742099 1842.56266529 1015.3615403 1842.56464251 C1004.34752761 1842.5667731 993.33351887 1842.57103816 982.31950806 1842.57788523 C981.62341562 1842.57831584 980.92732318 1842.57874646 980.21013702 1842.57919012 C977.37494013 1842.58094854 974.53974325 1842.58271819 971.70454638 1842.58450314 C937.35407085 1842.60608686 903.00359454 1842.61698008 868.65311377 1842.62597938 C857.50989553 1842.62891487 846.36667749 1842.63228498 835.22345947 1842.63594659 C834.43693989 1842.63620488 833.65042031 1842.63646317 832.84006681 1842.63672929 C829.65780414 1842.63777557 826.47554147 1842.63882399 823.2932788 1842.63987511 C768.85264545 1842.6578407 714.41201178 1842.6732172 659.97137588 1842.68063414 C655.69621487 1842.6812181 651.42105386 1842.68181537 647.14589286 1842.68241176 C646.29785844 1842.68252988 645.44982402 1842.682648 644.57609159 1842.6827697 C635.98468034 1842.68396704 627.39326909 1842.68517582 618.80185785 1842.68640223 C617.07928892 1842.68664747 615.35671999 1842.68689132 613.63415106 1842.6871338 C558.34591648 1842.69491865 503.05770317 1842.71729081 447.76947788 1842.74981023 C408.03728364 1842.77317203 368.30509364 1842.79471541 328.57289265 1842.80181654 C327.75488412 1842.80196356 326.93687559 1842.80211058 326.09407893 1842.80226206 C308.13195401 1842.8054477 290.16982914 1842.80749803 272.20770398 1842.80848961 C264.9793648 1842.80890431 257.75102563 1842.8094592 250.52268647 1842.81005152 C249.73162851 1842.81011219 248.94057055 1842.81017286 248.12554114 1842.81023536 C222.69536881 1842.81224731 197.26522166 1842.82645603 171.83505811 1842.84699652 C146.19885455 1842.86762985 120.56268002 1842.87544449 94.92646899 1842.86591876 C91.37385651 1842.86460053 87.821244 1842.86342242 84.26863144 1842.86232813 C83.22413852 1842.86199836 83.22413852 1842.86199836 82.15854472 1842.86166192 C71.85671423 1842.8587516 61.55493418 1842.86693864 51.25311516 1842.88188418 C39.7654479 1842.89847979 28.27787806 1842.90172197 16.79020604 1842.88725544 C11.01619592 1842.88039206 5.24237596 1842.87957409 -0.53161678 1842.89681553 C-25.04162747 1842.9655256 -48.86028304 1842.39338806 -73.0856414 1838.39160402 C-74.05907004 1838.23233039 -75.03249868 1838.07305675 -76.03542516 1837.90895664 C-81.33279317 1837.02821548 -86.5874657 1836.02898877 -91.8356414 1834.89160402 C-92.9922628 1834.64549379 -92.9922628 1834.64549379 -94.17225028 1834.39441164 C-130.61978453 1826.55494453 -165.54850894 1812.47216552 -198.0856414 1794.39160402 C-199.11721366 1793.81877688 -199.11721366 1793.81877688 -200.16962577 1793.23437746 C-208.52550619 1788.53258452 -216.46147747 1783.20072923 -224.3981414 1777.82910402 C-225.30572196 1777.21575197 -226.21330253 1776.60239992 -227.14838554 1775.97046145 C-233.3618276 1771.71420544 -239.25941492 1767.16134489 -245.0856414 1762.39160402 C-246.0859539 1761.58851809 -247.0862664 1760.78543215 -248.1168914 1759.95801027 C-253.4221179 1755.65171091 -258.58368459 1751.2302596 -263.6325164 1746.62597902 C-265.23585147 1745.16561651 -266.85007881 1743.71710043 -268.4762664 1742.28222902 C-278.28431184 1733.61318241 -287.66528694 1724.4228089 -296.0856414 1714.39160402 C-296.92611015 1713.41707277 -297.7665789 1712.44254152 -298.6325164 1711.43847902 C-304.76447917 1704.31156312 -310.58310756 1697.01979105 -316.0856414 1689.39160402 C-316.59465995 1688.69212648 -317.10367851 1687.99264895 -317.62812187 1687.27197512 C-335.50377893 1662.62183546 -351.28601153 1635.93252943 -362.0856414 1607.39160402 C-362.36182304 1606.67681887 -362.63800468 1605.96203371 -362.92255546 1605.2255884 C-364.74335528 1600.50683756 -366.48585481 1595.7651663 -368.16767265 1590.99511965 C-368.78599607 1589.24144917 -369.41114058 1587.49017058 -370.04267265 1585.7412134 C-379.6857189 1558.79062797 -385.31252865 1529.85195711 -388.0856414 1501.39160402 C-388.21448363 1500.19204532 -388.21448363 1500.19204532 -388.34592873 1498.9682531 C-389.27833243 1489.3910586 -389.22705315 1479.84482844 -389.21706916 1470.23349913 C-389.21872091 1468.28861195 -389.22080814 1466.3437251 -389.22328927 1464.39883881 C-389.22883857 1459.05454381 -389.22818669 1453.7102649 -389.22651167 1448.36596795 C-389.22577921 1442.55140427 -389.23080673 1436.73684507 -389.23508669 1430.92228331 C-389.24221868 1420.06183316 -389.24481442 1409.20138746 -389.24531398 1398.34093514 C-389.24583202 1388.0772192 -389.2486981 1377.81350665 -389.25362922 1367.54979189 C-389.25395936 1366.85865782 -389.25428949 1366.16752375 -389.25462963 1365.45544623 C-389.25597967 1362.64042721 -389.25734234 1359.82540821 -389.25872173 1357.01038921 C-389.27501248 1323.70526841 -389.28140905 1290.40014833 -389.2861696 1257.09502422 C-389.28855428 1240.50488905 -389.29225806 1223.91475427 -389.2962067 1207.32461941 C-389.30887082 1154.0857892 -389.31965421 1100.84695901 -389.32304716 1047.60812731 C-389.3232094 1045.06427587 -389.32337496 1042.52042443 -389.32354154 1039.97657298 C-389.32387533 1034.8749946 -389.32420581 1029.77341621 -389.3245361 1024.67183782 C-389.32492299 1018.69936213 -389.3253126 1012.72688643 -389.32570716 1006.75441073 C-389.32581958 1005.04505152 -389.325931 1003.3356923 -389.32604142 1001.62633309 C-389.3295896 946.74681954 -389.34466307 891.86731909 -389.36797916 836.98781055 C-389.38472929 797.54676362 -389.40019942 758.10571917 -389.40471412 718.66466864 C-389.40480761 717.85290295 -389.40490109 717.04113727 -389.40499741 716.20477263 C-389.40701683 698.38109361 -389.40817257 680.55741464 -389.408526 662.73373551 C-389.40866216 656.35533801 -389.40887115 649.9769405 -389.40911925 643.598543 C-389.40918081 642.01183165 -389.40923913 640.4251203 -389.4092942 638.83840895 C-389.41021263 613.59312389 -389.42016417 588.34785255 -389.43475169 563.102572 C-389.4493944 537.65986369 -389.45439301 512.21717216 -389.44633214 486.77446038 C-389.44521692 483.25111764 -389.44420622 479.72777488 -389.44325782 476.20443209 C-389.44306785 475.51382291 -389.44287789 474.82321372 -389.44268216 474.11167699 C-389.44012469 463.88260535 -389.44589988 453.6535619 -389.45671607 443.42449625 C-389.46871664 432.02476097 -389.47075784 420.62508125 -389.45946101 409.22534418 C-389.45408649 403.49283742 -389.45330205 397.76043822 -389.46596973 392.02794052 C-389.51242107 369.62128044 -389.47771554 347.59304339 -386.0856414 325.39160402 C-385.91761343 324.24398329 -385.91761343 324.24398329 -385.74619095 323.0731783 C-385.16694981 319.12047901 -384.51212897 315.19257308 -383.7731414 311.26660402 C-383.55859306 310.11232912 -383.34404472 308.95805422 -383.12299491 307.76880129 C-382.46495856 304.30516521 -381.78220736 300.84768165 -381.0856414 297.39160402 C-380.88132499 296.36953859 -380.67700859 295.34747316 -380.46650077 294.29443606 C-373.28399182 259.35666036 -359.94893736 225.31270014 -342.24140312 194.42431887 C-340.72227287 191.75252368 -339.27853766 189.04266755 -337.8356414 186.32910402 C-326.06915744 164.84535522 -310.8582214 144.78452484 -294.2809539 126.79785402 C-292.44163007 124.78179801 -290.65606569 122.73572535 -288.8747039 120.66894777 C-284.87152899 116.08489072 -280.64007787 111.75441571 -276.3356414 107.45410402 C-275.14648124 106.26506472 -275.14648124 106.26506472 -273.93329765 105.05200441 C-268.99756647 100.16408058 -264.000567 95.60416791 -258.5231414 91.32910402 C-255.93101926 89.26869925 -253.51607346 87.07725368 -251.0856414 84.82910402 C-246.02748934 80.25006265 -240.68706974 76.27389778 -235.0856414 72.39160402 C-234.322033 71.85760988 -233.5584246 71.32361574 -232.77167655 70.77343996 C-214.93115513 58.31995015 -196.81474641 46.62600767 -177.0856414 37.39160402 C-176.10079765 36.92141848 -175.1159539 36.45123293 -174.1012664 35.96679934 C-146.76058583 22.96863811 -118.7908722 13.40355526 -89.0856414 7.39160402 C-87.28743131 7.0115518 -85.48925304 6.63134903 -83.69111015 6.25097902 C-78.5074802 5.18180233 -73.30412555 4.27254103 -68.0856414 3.39160402 C-67.28190061 3.25284546 -66.47815982 3.1140869 -65.65006325 2.97112353 C-43.91403478 -0.61737011 -21.95452698 -0.03770876 0 0 Z " fill="#6C1CD3" transform="translate(389.0856413980946,-0.3916040239855647)"></path><path d="M0 0 C58.08 0 116.16 0 176 0 C176 59.4 176 118.8 176 180 C267.74 180 359.48 180 454 180 C454.185625 203.863125 454.37125 227.72625 454.5625 252.3125 C454.64443604 259.83458252 454.72637207 267.35666504 454.81079102 275.10668945 C454.85144043 284.32458496 454.85144043 284.32458496 454.85899353 288.64616394 C454.86734648 291.65129454 454.90093487 294.6549802 454.95018005 297.65971375 C455.01233321 301.50349182 455.03034761 305.34519667 455.01765049 309.18943059 C455.02030158 310.59327063 455.03790938 311.99718981 455.07293618 313.40059531 C455.29426102 322.70750074 453.70239831 327.82405138 447.28340054 334.66403484 C446.52987836 335.43490335 445.77635618 336.20577185 445 337 C443.78342278 338.50228031 442.58278569 340.0178575 441.41015625 341.5546875 C440.85884033 342.26463867 440.30752441 342.97458984 439.73950195 343.70605469 C438.90938599 344.77968262 438.90938599 344.77968262 438.0625 345.875 C437.46332764 346.6474707 436.86415527 347.41994141 436.24682617 348.21582031 C432.75702243 352.71825072 429.28088374 357.23105905 425.8125 361.75 C422.03802083 366.66602897 418.22271864 371.54761722 414.38818359 376.41674805 C404.42922703 389.06952073 394.57892163 401.80710747 384.78369141 414.58691406 C378.25188133 423.10801599 371.64540756 431.56725567 365 440 C354.37093292 453.49493806 343.78013864 467.018832 333.375 480.6875 C328.84233235 486.63978441 324.21780598 492.50700498 319.5234375 498.33227539 C314.05980537 505.13216097 308.78768869 512.07620085 303.5078125 519.01904297 C295.64342338 529.35124072 287.64216086 539.57296177 279.60449219 549.77050781 C274.35863257 556.4280073 269.13703526 563.10141326 263.97802734 569.82666016 C255.78428351 580.50122537 247.50048436 591.10661982 239.17724609 601.68041992 C233.68925881 608.65743461 228.24833518 615.67104514 222.80273438 622.68115234 C221.02139147 624.97248427 219.23766377 627.26193773 217.453125 629.55078125 C211.70570684 636.9250677 205.98161089 644.3152938 200.3125 651.75 C195.99662731 657.40933501 191.64158649 663.03419359 187.23364258 668.62207031 C183.46721577 673.3978099 179.73070679 678.19631794 176 683 C171.84793285 688.3449386 167.6868298 693.68224491 163.5 699 C154.71194325 710.16781704 145.982752 721.38003809 137.375 732.6875 C132.76857233 738.736267 128.07085651 744.70183474 123.30371094 750.62451172 C119.78642128 754.99964859 116.33860639 759.42010844 112.92675781 763.87817383 C105.19583051 773.97879841 97.36669383 784.00484323 89.5 794 C80.07002648 805.98403365 70.72407443 818.03065483 61.47973633 830.15844727 C58.02519676 834.68238842 54.50853089 839.14847316 50.93359375 843.578125 C48.2880514 846.8917336 45.71098681 850.25647291 43.13208008 853.62207031 C39.4438369 858.43227859 35.72479998 863.21806058 32 868 C27.92091049 873.23743055 23.85196687 878.48194705 19.8125 883.75 C14.1385239 891.13914861 8.37142126 898.45389312 2.60449219 905.77050781 C-8.57653203 919.60988242 -8.57653203 919.60988242 -19 934 C-17.7616893 933.99456177 -16.5233786 933.98912354 -15.24754333 933.98352051 C-4.61327731 933.95220336 6.0153594 934.02278697 16.64819336 934.20117188 C58.39532641 934.8901975 100.14110201 935.14160292 141.89313322 935.27413368 C144.12847023 935.28124861 146.3638069 935.28845983 148.59914351 935.29570007 C173.95328217 935.37771477 199.30744821 935.44984185 224.66162336 935.51953927 C228.61450356 935.53040783 232.56738365 935.54131434 236.52026367 935.55224609 C237.30130872 935.55440496 238.08235377 935.55656383 238.88706685 935.55878812 C251.97738122 935.59507801 265.06768205 935.63499148 278.15797752 935.67754889 C286.13889244 935.7033346 294.11980381 935.72607517 302.10073911 935.74453247 C308.19504333 935.75886976 314.2893243 935.7780055 320.38360977 935.79878426 C322.85124839 935.80643399 325.3188924 935.81254838 327.78653908 935.81687737 C344.21182184 935.84678888 360.59118822 936.25706857 377 937 C381.22751654 945.17232846 385.07941106 953.41000611 388.6875 961.875 C406.00125735 1002.1775243 429.24532332 1040.71086579 459.375 1072.8125 C470.30764936 1084.70353096 475.50417138 1096.59954786 475.3359375 1112.75 C475 1116 475 1116 473 1120 C374.99 1120 276.98 1120 176 1120 C176 1178.74 176 1237.48 176 1298 C117.92 1298 59.84 1298 0 1298 C0 1239.26 0 1180.52 0 1120 C-96.36 1120 -192.72 1120 -292 1120 C-292.20625 1094.5075 -292.4125 1069.015 -292.625 1042.75 C-292.71604004 1034.71495117 -292.80708008 1026.67990234 -292.90087891 1018.40136719 C-292.94604492 1008.55322266 -292.94604492 1008.55322266 -292.95443726 1003.93585205 C-292.96371672 1000.72566948 -293.00102962 997.5171576 -293.05575562 994.30743408 C-293.12483374 990.20095285 -293.14482766 986.0968674 -293.13072276 981.9898591 C-293.1336676 980.49036019 -293.15322156 978.9907695 -293.19215131 977.49177313 C-293.44385983 967.319397 -291.34812142 961.70460595 -284.42224693 954.42117691 C-283.62290545 953.62218853 -282.82356396 952.82320015 -282 952 C-281.0382564 950.83337196 -280.09477305 949.65088025 -279.1875 948.44140625 C-277.62593416 946.38627407 -276.06196578 944.33309269 -274.49609375 942.28125 C-273.87710205 941.46720703 -273.87710205 941.46720703 -273.24560547 940.63671875 C-271.19263077 937.93912127 -269.12836101 935.25023564 -267.0625 932.5625 C-266.4432666 931.7566748 -266.4432666 931.7566748 -265.81152344 930.93457031 C-262.36682343 926.45992901 -258.88142376 922.01810634 -255.38696289 917.58227539 C-251.57187458 912.73654877 -247.78323967 907.87061945 -244 903 C-238.46560019 895.87662651 -232.90691785 888.77303237 -227.32666016 881.68554688 C-224.58843319 878.20657761 -221.85415907 874.7244987 -219.11987305 871.24243164 C-216.85668051 868.36080158 -214.59122603 865.48101922 -212.3203125 862.60546875 C-207.34503832 856.29935619 -202.42721282 849.9543723 -197.5625 843.5625 C-192.96655448 837.52515429 -188.28243447 831.57069516 -183.51977539 825.66430664 C-179.77019439 820.99962371 -176.12102971 816.26496546 -172.5 811.5 C-167.92585008 805.48080985 -163.26356893 799.54600864 -158.51733398 793.66186523 C-154.78614802 789.02096196 -151.16130533 784.306551 -147.5625 779.5625 C-143.29011488 773.93214094 -138.92342262 768.39914764 -134.4375 762.9375 C-129.60527088 757.0517031 -124.98246405 751.04366345 -120.44677734 744.92724609 C-116.60294773 739.75961319 -112.61629143 734.72455584 -108.57006836 729.71459961 C-104.8010007 725.03493401 -101.13474624 720.2845515 -97.5 715.5 C-93.40281163 710.10825827 -89.25075001 704.77154698 -85 699.5 C-80.73180811 694.20546832 -76.55688135 688.84862897 -72.4375 683.4375 C-65.28657835 674.04470781 -58.02079834 664.75069952 -50.62304688 655.55102539 C-45.24736534 648.86383877 -39.98644289 642.10035235 -34.79003906 635.27294922 C-30.03276953 629.02636074 -25.19564956 622.84610074 -20.32958984 616.68408203 C-18.11213505 613.87541454 -15.89928351 611.06313475 -13.6875 608.25 C-13.01823486 607.3988562 -13.01823486 607.3988562 -12.33544922 606.53051758 C-8.54091277 601.69946721 -4.7690102 596.85097871 -1 592 C5.40740616 583.75322189 11.85244615 575.53681931 18.31347656 567.33203125 C24.50282976 559.47049899 30.66130628 551.58572226 36.79907227 543.68383789 C40.43410421 539.00623468 44.08402072 534.34087772 47.75 529.6875 C51.19541323 525.3133232 54.6121074 520.9188743 58 516.5 C63.27495444 509.6205324 68.63433275 502.80880738 74 496 C80.02396237 488.3518218 86.0268049 480.68791823 92 473 C98.40740616 464.75322189 104.85244615 456.53681931 111.31347656 448.33203125 C119.24910628 438.25243051 127.13019325 428.13105042 135 418 C148.48471417 400.6407022 148.48471417 400.6407022 154.6875 392.75 C155.12771484 392.18982178 155.56792969 391.62964355 156.02148438 391.05249023 C158.29027641 388.16748825 160.56424981 385.28670537 162.84375 382.41015625 C163.31981689 381.8078418 163.79588379 381.20552734 164.28637695 380.58496094 C165.17114364 379.46570564 166.05749109 378.34769645 166.94604492 377.23144531 C171.13417734 371.92794624 175.01294734 366.4821974 179 361 C29.51 361 -119.98 361 -274 361 C-274 300.61 -274 240.22 -274 178 C-217.05084096 178 -217.05084096 178 -188.72244263 178.33982658 C-183.20227587 178.40543697 -177.6820727 178.46760338 -172.16186523 178.52967834 C-164.37448828 178.61768592 -156.58713941 178.70789646 -148.79980469 178.79956055 C-139.95374593 178.90366056 -131.1076522 179.0042037 -122.26153088 179.10283273 C-113.54933973 179.20005511 -104.83717995 179.29987271 -96.12503052 179.40075874 C-91.75320124 179.45133816 -87.38135914 179.50062624 -83.00950432 179.54894531 C-55.33380714 179.86430359 -27.67402293 180.43522402 0 181 C0 121.27 0 61.54 0 0 Z " fill="#FEFEFE" transform="translate(830,272)"></path><path d="M0 0 C226.71 0 453.42 0 687 0 C687 148 687 148 673 165 C668.82298102 170.32410166 668.82298102 170.32410166 664.65625 175.65625 C661.50783322 179.65483273 658.21265175 183.52395685 654.90893555 187.39428711 C651.59530185 191.28003343 648.38032486 195.2299214 645.20703125 199.23046875 C642.43126687 202.71368458 639.62308435 206.16985828 636.8125 209.625 C636.2570752 210.30796143 635.70165039 210.99092285 635.12939453 211.69458008 C633.98822213 213.09757779 632.8469451 214.50049041 631.70556641 215.90332031 C628.96883521 219.26762714 626.2345045 222.63388328 623.5 226 C622.41667893 227.3333433 621.33334558 228.66667662 620.25 230 C619.71375 230.66 619.1775 231.32 618.625 232 C511.37499997 364.00000004 511.37499997 364.00000004 443.12451172 448.00048828 C442.04265888 449.33207451 440.96095282 450.66378 439.87939453 451.99560547 C437.14960892 455.35666941 434.41719783 458.71553619 431.6796875 462.0703125 C426.51982364 468.39886347 421.39349147 474.7460689 416.375 481.1875 C412.34017962 486.36372575 408.16978529 491.40258191 403.90917969 496.39404297 C400.59542041 500.27983432 397.38039624 504.22983142 394.20703125 508.23046875 C391.43126687 511.71368458 388.62308435 515.16985828 385.8125 518.625 C385.2570752 519.30796143 384.70165039 519.99092285 384.12939453 520.69458008 C382.98822213 522.09757779 381.8469451 523.50049041 380.70556641 524.90332031 C377.96883521 528.26762714 375.2345045 531.63388328 372.5 535 C371.41667893 536.3333433 370.33334558 537.66667662 369.25 539 C368.71375 539.66 368.1775 540.32 367.625 541 C314 607 260.375 673 205.1237793 741.00146484 C204.04446592 742.32987551 202.9652013 743.65832579 201.88598633 744.98681641 C199.11655377 748.39579923 196.34618165 751.80401176 193.57421875 755.2109375 C193.00703125 755.90832031 192.43984375 756.60570312 191.85546875 757.32421875 C190.79199055 758.63177391 189.72821935 759.93909085 188.6640625 761.24609375 C184.41271075 766.47425739 180.21000026 771.73749967 176 777 C351.23 777.33 526.46 777.66 707 778 C707 830.8 707 883.6 707 938 C653.93244061 938.02122478 653.93244061 938.02122478 633.83976746 938.0255127 C631.95176509 938.02591682 631.95176509 938.02591682 630.02562126 938.0263291 C558.20401262 938.04123828 486.38237761 938.04815633 324.76171875 937.78125 C323.33674775 937.77848565 321.91177674 937.77572143 320.48680574 937.77295732 C286.30037408 937.70658216 252.11395123 937.63614707 217.92753197 937.56369197 C195.90343188 937.51701408 173.87932951 937.47159865 151.85522461 937.42724609 C151.11352756 937.42575204 150.37183051 937.42425798 149.60765779 937.42271865 C142.14940351 937.40769608 134.69114918 937.39269459 127.23289483 937.37770845 C112.08176139 937.34726425 96.93062823 937.31668062 81.77949524 937.28601074 C81.08508802 937.28460525 80.39068079 937.28319976 79.67523093 937.28175168 C34.45014906 937.19019977 -10.77492611 937.09540478 -56 937 C-56.28091203 914.81615008 -56.49221875 892.63259536 -56.62174606 870.44732475 C-56.68349978 860.14510347 -56.76761684 849.84399026 -56.90527344 839.54248047 C-57.02526496 830.55861483 -57.10238811 821.57555197 -57.12906194 812.59090722 C-57.14464395 807.83756634 -57.18098679 803.08652096 -57.26876068 798.33391953 C-57.35089367 793.84995345 -57.37520928 789.36920272 -57.35729218 784.88455582 C-57.36056409 783.24867447 -57.38404337 781.61267332 -57.4304657 779.97744751 C-57.68684763 770.47124827 -56.63965561 764.46467472 -50.16094971 757.21853638 C-48.60962102 755.58807401 -47.03212696 753.99633586 -45.42061472 752.42545152 C-43.4600397 750.45820128 -41.76108272 748.31917136 -40.0625 746.125 C-36.64461993 741.79946713 -33.17232312 737.52157205 -29.6875 733.25 C-25.52728627 728.14638094 -21.42032361 723.00757792 -17.375 717.8125 C-13.34032895 712.63616213 -9.16977965 707.59741148 -4.90917969 702.60595703 C-1.59777918 698.72293164 1.61568518 694.77645142 4.78515625 690.77734375 C7.6009978 687.24636784 10.45802216 683.74975881 13.3125 680.25 C17.47264665 675.14632729 21.57972789 670.00761935 25.625 664.8125 C29.5886014 659.72636771 33.68990285 654.78365884 37.88208008 649.88500977 C41.12398446 646.07974489 44.24343227 642.19562479 47.3125 638.25 C51.41880687 632.97257501 55.6145689 627.77882279 59.875 622.625 C60.75889404 621.55560181 60.75889404 621.55560181 61.66064453 620.46459961 C62.54598877 619.39350952 62.54598877 619.39350952 63.44921875 618.30078125 C70.95061967 609.22488568 78.38676658 600.09994911 85.625 590.8125 C89.58884733 585.72655254 93.68989353 580.78366972 97.88208008 575.88500977 C101.12398446 572.07974489 104.24343227 568.19562479 107.3125 564.25 C111.41880687 558.97257501 115.6145689 553.77882279 119.875 548.625 C120.75889404 547.55560181 120.75889404 547.55560181 121.66064453 546.46459961 C122.25087402 545.75053955 122.84110352 545.03647949 123.44921875 544.30078125 C130.95062304 535.2248816 138.38666988 526.09987815 145.625 516.8125 C149.65992254 511.63635027 153.83021066 506.59742283 158.09082031 501.60595703 C161.40222082 497.72293164 164.61568518 493.77645142 167.78515625 489.77734375 C170.6009978 486.24636784 173.45802216 482.74975881 176.3125 479.25 C180.47264665 474.14632729 184.57972789 469.00761935 188.625 463.8125 C192.5886014 458.72636771 196.68990285 453.78365884 200.88208008 448.88500977 C204.12398446 445.07974489 207.24343227 441.19562479 210.3125 437.25 C214.41880687 431.97257501 218.6145689 426.77882279 222.875 421.625 C223.4642627 420.91206787 224.05352539 420.19913574 224.66064453 419.46459961 C225.25087402 418.75053955 225.84110352 418.03647949 226.44921875 417.30078125 C233.95061967 408.22488568 241.38676658 399.09994911 248.625 389.8125 C252.58884733 384.72655254 256.68989353 379.78366972 260.88208008 374.88500977 C264.12398446 371.07974489 267.24343227 367.19562479 270.3125 363.25 C274.99411267 357.23319207 279.80706209 351.33522988 284.66503906 345.46020508 C290.27878207 338.67094123 295.83494317 331.83618967 301.38232422 324.99267578 C303.0239671 322.97047699 304.66961516 320.95160162 306.31640625 318.93359375 C311.47802432 312.60409595 316.60544231 306.25543388 321.625 299.8125 C325.58874751 294.726478 329.68989744 289.78366515 333.88208008 284.88500977 C337.12398446 281.07974489 340.24343227 277.19562479 343.3125 273.25 C347.41880687 267.97257501 351.6145689 262.77882279 355.875 257.625 C356.4642627 256.91206787 357.05352539 256.19913574 357.66064453 255.46459961 C358.25087402 254.75053955 358.84110352 254.03647949 359.44921875 253.30078125 C366.95061967 244.22488568 374.38676658 235.09994911 381.625 225.8125 C385.58884733 220.72655254 389.68989353 215.78366972 393.88208008 210.88500977 C397.60046176 206.52046797 401.14505256 202.03761304 404.6640625 197.51171875 C408.87840657 192.1102355 413.22755581 186.82542376 417.61450195 181.56347656 C423.22119559 174.81100541 428.56856176 167.91273958 434 161 C219.17 160.505 219.17 160.505 0 160 C0 107.2 0 54.4 0 0 Z " fill="#FFFFFF" transform="translate(2610,454)"></path><path d="M0 0 C3.66297792 0.01607638 7.32484805 0.00003742 10.98779297 -0.01904297 C73.26188448 -0.07336204 138.68275546 15.52874794 189.79638672 52.39111328 C190.44414062 52.85630371 191.09189453 53.32149414 191.75927734 53.80078125 C205.89717894 64.02173282 218.73514198 75.15963566 231.10888672 87.45361328 C232.02814941 88.36353027 232.94741211 89.27344727 233.89453125 90.2109375 C239.95097274 96.2958284 245.49599104 102.63931631 250.79638672 109.39111328 C251.55012573 110.34787964 251.55012573 110.34787964 252.3190918 111.32397461 C269.67929163 133.7230804 283.58526699 158.98992884 293.79638672 185.39111328 C294.15442383 186.31311523 294.51246094 187.23511719 294.88134766 188.18505859 C322.05804029 258.96702562 325.79638672 332.27417614 325.79638672 407.39111328 C177.29638672 407.39111328 28.79638672 407.39111328 -124.20361328 407.39111328 C-120.34057319 442.15847409 -116.77211081 472.07677556 -100.20361328 502.39111328 C-99.61580078 503.48166016 -99.02798828 504.57220703 -98.42236328 505.69580078 C-94.62054797 512.48722541 -90.27374213 518.4949522 -85.20361328 524.39111328 C-84.17107422 525.60734375 -84.17107422 525.60734375 -83.11767578 526.84814453 C-60.30463822 552.99666232 -29.67265633 569.09296756 4.79638672 573.39111328 C9.52073513 573.59899847 14.24368907 573.6190652 18.97192383 573.63134766 C21.19700974 573.64095407 23.42113006 573.67198831 25.64599609 573.70361328 C54.61336077 573.9180137 80.65681312 563.71542514 101.57763672 543.73486328 C118.70760589 525.75896971 128.34883137 501.68614587 135.79638672 478.39111328 C145.67085698 478.94824862 155.32508515 480.31719909 165.06396484 481.96728516 C166.65372775 482.23230202 168.24357406 482.49681896 169.83349609 482.76087952 C174.11065092 483.47270074 178.38660766 484.19148809 182.66236305 484.91166115 C187.15163945 485.66659423 191.64198146 486.41513653 196.13220215 487.16442871 C203.66086485 488.42164988 211.18883052 489.68297176 218.71630859 490.94726562 C229.32969529 492.72985354 239.94431692 494.5049987 250.55919743 496.2786665 C258.81557743 497.65850234 267.07164538 499.04020407 275.32763672 500.42236328 C276.21117136 500.57026999 277.094706 500.71817669 278.00501442 500.87056541 C283.0807406 501.72041107 288.1563025 502.57122712 293.23162842 503.42346001 C294.76787395 503.68131798 296.30416338 503.93891455 297.84049988 504.19622993 C299.93794214 504.5475908 302.03521579 504.89994114 304.13244629 505.25256348 C305.89217144 505.54789349 305.89217144 505.54789349 307.68744659 505.84918976 C310.40058819 506.32212111 313.09904444 506.8359283 315.79638672 507.39111328 C315.2902597 514.42627882 312.60120322 520.48623773 309.92138672 526.95361328 C309.18263306 528.74520874 309.18263306 528.74520874 308.42895508 530.57299805 C289.67562189 575.40858754 260.89438065 618.70658985 221.79638672 648.39111328 C221.24547363 648.81312012 220.69456055 649.23512695 220.12695312 649.66992188 C181.28407997 679.30559546 136.23258136 697.26774479 88.17138672 705.14111328 C86.97078613 705.33979004 85.77018555 705.5384668 84.53320312 705.74316406 C64.34338175 708.89436395 44.28509936 709.74441688 23.86816406 709.70678711 C21.16779828 709.70217773 18.4678854 709.70901693 15.76757812 709.72729492 C-11.88208692 709.91247297 -39.02995776 707.71910516 -66.20361328 702.39111328 C-67.20183105 702.19710937 -68.20004883 702.00310547 -69.22851562 701.80322266 C-119.48957388 691.76535082 -166.85862746 670.27870867 -204.85205078 635.52001953 C-206.84820791 633.71286731 -208.88437693 631.98754182 -210.95361328 630.26611328 C-222.00134339 620.60213927 -231.44625599 609.12013604 -240.20361328 597.39111328 C-240.61530762 596.84696777 -241.02700195 596.30282227 -241.45117188 595.7421875 C-279.94043282 544.66198416 -299.43048284 481.75599343 -306.45361328 418.82861328 C-306.53669739 418.09010132 -306.61978149 417.35158936 -306.7053833 416.59069824 C-308.7928905 397.77637725 -309.41127375 379.06507538 -309.39111328 360.14111328 C-309.39050903 359.08730469 -309.38990479 358.03349609 -309.38928223 356.94775391 C-309.36251723 339.68237089 -308.94153952 322.58147064 -307.20361328 305.39111328 C-307.01025391 303.47685547 -307.01025391 303.47685547 -306.81298828 301.52392578 C-298.84405251 224.83018773 -273.05894199 151.67411351 -220.20361328 94.39111328 C-219.33091797 93.41529297 -218.45822266 92.43947266 -217.55908203 91.43408203 C-211.78611353 84.99277162 -205.75802583 79.04441267 -199.20361328 73.39111328 C-198.16766848 72.4701245 -197.13255557 71.54819938 -196.09814453 70.62548828 C-159.11756706 37.92670125 -114.01531481 16.41934879 -65.89111328 6.14111328 C-64.81522949 5.90690674 -63.7393457 5.6727002 -62.63085938 5.43139648 C-41.91678389 1.22493394 -21.09944206 -0.10952725 0 0 Z M-70.20361328 167.39111328 C-71.35796875 168.33470703 -71.35796875 168.33470703 -72.53564453 169.29736328 C-77.25528197 173.26799516 -81.27400782 177.64788906 -85.20361328 182.39111328 C-85.83009766 183.11814453 -86.45658203 183.84517578 -87.10205078 184.59423828 C-113.25681398 215.81454851 -121.20361328 256.67448977 -121.20361328 296.39111328 C-32.76361328 296.39111328 55.67638672 296.39111328 146.79638672 296.39111328 C146.02849854 279.60046712 146.02849854 279.60046712 144.10888672 263.01611328 C143.84724731 261.31140869 143.84724731 261.31140869 143.58032227 259.57226562 C137.27364323 220.58799912 119.70763582 184.60033322 87.29248047 160.75439453 C65.26396802 145.19565029 40.73876541 137.9397927 13.85888672 138.01611328 C13.13605499 138.0166571 12.41322327 138.01720093 11.66848755 138.01776123 C-19.09073858 138.12377342 -46.53880017 147.5879224 -70.20361328 167.39111328 Z " fill="#FFFFFF" transform="translate(5146.20361328125,696.60888671875)"></path><path d="M0 0 C3.66297792 0.01607638 7.32484805 0.00003742 10.98779297 -0.01904297 C73.26188448 -0.07336204 138.68275546 15.52874794 189.79638672 52.39111328 C190.44414062 52.85630371 191.09189453 53.32149414 191.75927734 53.80078125 C205.89717894 64.02173282 218.73514198 75.15963566 231.10888672 87.45361328 C232.02814941 88.36353027 232.94741211 89.27344727 233.89453125 90.2109375 C239.95097274 96.2958284 245.49599104 102.63931631 250.79638672 109.39111328 C251.55012573 110.34787964 251.55012573 110.34787964 252.3190918 111.32397461 C269.67929163 133.7230804 283.58526699 158.98992884 293.79638672 185.39111328 C294.15442383 186.31311523 294.51246094 187.23511719 294.88134766 188.18505859 C322.05804029 258.96702562 325.79638672 332.27417614 325.79638672 407.39111328 C177.29638672 407.39111328 28.79638672 407.39111328 -124.20361328 407.39111328 C-120.34057319 442.15847409 -116.77211081 472.07677556 -100.20361328 502.39111328 C-99.61580078 503.48166016 -99.02798828 504.57220703 -98.42236328 505.69580078 C-94.62054797 512.48722541 -90.27374213 518.4949522 -85.20361328 524.39111328 C-84.17107422 525.60734375 -84.17107422 525.60734375 -83.11767578 526.84814453 C-60.30463822 552.99666232 -29.67265633 569.09296756 4.79638672 573.39111328 C9.52073513 573.59899847 14.24368907 573.6190652 18.97192383 573.63134766 C21.19700974 573.64095407 23.42113006 573.67198831 25.64599609 573.70361328 C54.61336077 573.9180137 80.65681312 563.71542514 101.57763672 543.73486328 C118.70760589 525.75896971 128.34883137 501.68614587 135.79638672 478.39111328 C145.67085698 478.94824862 155.32508515 480.31719909 165.06396484 481.96728516 C166.65372775 482.23230202 168.24357406 482.49681896 169.83349609 482.76087952 C174.11065092 483.47270074 178.38660766 484.19148809 182.66236305 484.91166115 C187.15163945 485.66659423 191.64198146 486.41513653 196.13220215 487.16442871 C203.66086485 488.42164988 211.18883052 489.68297176 218.71630859 490.94726562 C229.32969529 492.72985354 239.94431692 494.5049987 250.55919743 496.2786665 C258.81557743 497.65850234 267.07164538 499.04020407 275.32763672 500.42236328 C276.21117136 500.57026999 277.094706 500.71817669 278.00501442 500.87056541 C283.0807406 501.72041107 288.1563025 502.57122712 293.23162842 503.42346001 C294.76787395 503.68131798 296.30416338 503.93891455 297.84049988 504.19622993 C299.93794214 504.5475908 302.03521579 504.89994114 304.13244629 505.25256348 C305.89217144 505.54789349 305.89217144 505.54789349 307.68744659 505.84918976 C310.40058819 506.32212111 313.09904444 506.8359283 315.79638672 507.39111328 C315.2902597 514.42627882 312.60120322 520.48623773 309.92138672 526.95361328 C309.18263306 528.74520874 309.18263306 528.74520874 308.42895508 530.57299805 C289.67562189 575.40858754 260.89438065 618.70658985 221.79638672 648.39111328 C221.24547363 648.81312012 220.69456055 649.23512695 220.12695312 649.66992188 C181.28407997 679.30559546 136.23258136 697.26774479 88.17138672 705.14111328 C86.97078613 705.33979004 85.77018555 705.5384668 84.53320312 705.74316406 C64.34338175 708.89436395 44.28509936 709.74441688 23.86816406 709.70678711 C21.16779828 709.70217773 18.4678854 709.70901693 15.76757812 709.72729492 C-11.88208692 709.91247297 -39.02995776 707.71910516 -66.20361328 702.39111328 C-67.20183105 702.19710937 -68.20004883 702.00310547 -69.22851562 701.80322266 C-119.48957388 691.76535082 -166.85862746 670.27870867 -204.85205078 635.52001953 C-206.84820791 633.71286731 -208.88437693 631.98754182 -210.95361328 630.26611328 C-222.00134339 620.60213927 -231.44625599 609.12013604 -240.20361328 597.39111328 C-240.61530762 596.84696777 -241.02700195 596.30282227 -241.45117188 595.7421875 C-279.94043282 544.66198416 -299.43048284 481.75599343 -306.45361328 418.82861328 C-306.53669739 418.09010132 -306.61978149 417.35158936 -306.7053833 416.59069824 C-308.7928905 397.77637725 -309.41127375 379.06507538 -309.39111328 360.14111328 C-309.39050903 359.08730469 -309.38990479 358.03349609 -309.38928223 356.94775391 C-309.36251723 339.68237089 -308.94153952 322.58147064 -307.20361328 305.39111328 C-307.01025391 303.47685547 -307.01025391 303.47685547 -306.81298828 301.52392578 C-298.84405251 224.83018773 -273.05894199 151.67411351 -220.20361328 94.39111328 C-219.33091797 93.41529297 -218.45822266 92.43947266 -217.55908203 91.43408203 C-211.78611353 84.99277162 -205.75802583 79.04441267 -199.20361328 73.39111328 C-198.16766848 72.4701245 -197.13255557 71.54819938 -196.09814453 70.62548828 C-159.11756706 37.92670125 -114.01531481 16.41934879 -65.89111328 6.14111328 C-64.81522949 5.90690674 -63.7393457 5.6727002 -62.63085938 5.43139648 C-41.91678389 1.22493394 -21.09944206 -0.10952725 0 0 Z M-70.20361328 167.39111328 C-71.35796875 168.33470703 -71.35796875 168.33470703 -72.53564453 169.29736328 C-77.25528197 173.26799516 -81.27400782 177.64788906 -85.20361328 182.39111328 C-85.83009766 183.11814453 -86.45658203 183.84517578 -87.10205078 184.59423828 C-113.25681398 215.81454851 -121.20361328 256.67448977 -121.20361328 296.39111328 C-32.76361328 296.39111328 55.67638672 296.39111328 146.79638672 296.39111328 C146.02849854 279.60046712 146.02849854 279.60046712 144.10888672 263.01611328 C143.84724731 261.31140869 143.84724731 261.31140869 143.58032227 259.57226562 C137.27364323 220.58799912 119.70763582 184.60033322 87.29248047 160.75439453 C65.26396802 145.19565029 40.73876541 137.9397927 13.85888672 138.01611328 C13.13605499 138.0166571 12.41322327 138.01720093 11.66848755 138.01776123 C-19.09073858 138.12377342 -46.53880017 147.5879224 -70.20361328 167.39111328 Z " fill="#FFFFFF" transform="translate(3691.20361328125,696.60888671875)"></path><path d="M0 0 C59.73 0 119.46 0 181 0 C181 309.54 181 619.08 181 938 C121.27 938 61.54 938 0 938 C0 628.46 0 318.92 0 0 Z " fill="#FFFFFF" transform="translate(4526,454)"></path><path d="M0 0 C59.73 0 119.46 0 181 0 C181 309.54 181 619.08 181 938 C121.27 938 61.54 938 0 938 C0 628.46 0 318.92 0 0 Z " fill="#FFFFFF" transform="translate(4162,454)"></path></svg>