<svg xmlns="http://www.w3.org/2000/svg" width="2000" height="442"><path d="M0 0 C1.59587518 -0.00573832 1.59587518 -0.00573832 3.22399026 -0.01159257 C6.75942979 -0.02184267 10.29470449 -0.01794563 13.83015442 -0.01396179 C16.37721404 -0.01831275 18.92427235 -0.02349718 21.47132874 -0.02944946 C27.65483922 -0.04142535 33.83828979 -0.04399558 40.0218096 -0.0416492 C45.053356 -0.03986051 50.08488927 -0.04162744 55.1164341 -0.04587364 C55.83469343 -0.04646883 56.55295275 -0.04706402 57.29297752 -0.04767724 C58.75252594 -0.0488891 60.21207437 -0.05010324 61.67162279 -0.05131962 C75.3384868 -0.06217875 89.00532609 -0.06004071 102.67219148 -0.05393478 C115.14434366 -0.04877017 127.61641763 -0.0600119 140.08855435 -0.07903299 C152.9259281 -0.09845941 165.76326494 -0.1066588 178.60065347 -0.10290974 C185.7953612 -0.10100457 192.99000244 -0.10341789 200.1846981 -0.11762428 C206.95553104 -0.13085944 213.72618313 -0.12821315 220.49702454 -0.11521339 C222.97203945 -0.11285831 225.4470655 -0.11554366 227.92206764 -0.12383652 C261.44390006 -0.22799441 287.36529519 7.58754392 312.001297 31.01069641 C330.2973071 49.82779541 340.03949818 74.91153654 340.01673889 100.98603821 C340.02119557 102.59009584 340.02119557 102.59009584 340.02574229 104.22655869 C340.03440309 107.80435215 340.03593534 111.38211205 340.03742981 114.95991516 C340.0420599 117.52771068 340.04708481 120.09550552 340.05247498 122.66329956 C340.06602698 129.63680857 340.0720784 136.6103118 340.07648563 143.58383179 C340.07925391 147.94409811 340.08349237 152.30436224 340.08798981 156.66462708 C340.10017942 168.75350302 340.11047867 180.8423772 340.1138649 192.93125916 C340.11408446 193.70422164 340.11430403 194.47718412 340.11453025 195.2735697 C340.11474853 196.04831243 340.11496681 196.82305516 340.1151917 197.62127495 C340.11563515 199.19102351 340.11608172 200.76077207 340.11653137 202.33052063 C340.1167528 203.10915915 340.11697423 203.88779767 340.11720237 204.69003129 C340.12114612 217.29243942 340.13858858 229.89478958 340.16189089 242.49717534 C340.18566031 255.45758389 340.19806932 268.41796344 340.19923282 281.37839413 C340.20014655 288.64635312 340.20582227 295.91423661 340.22405243 303.18217468 C340.24115493 310.02434478 340.24266443 316.86636993 340.23391342 323.70855522 C340.23314566 326.21140362 340.23745103 328.71425985 340.24737167 331.2170887 C340.29471834 343.9127258 340.22390469 355.94543202 336.876297 368.26069641 C336.64486118 369.11638214 336.41342537 369.97206787 336.17497635 370.85368347 C335.60457262 372.85608108 334.95885619 374.80288943 334.251297 376.76069641 C333.99968811 377.46081848 333.74807922 378.16094055 333.48884583 378.88227844 C328.88471875 391.0584596 321.53130479 401.60583212 312.876297 411.26069641 C312.26528137 411.95421204 311.65426575 412.64772766 311.0247345 413.36225891 C296.99384523 428.34844276 274.36955449 441.2489147 253.52208054 442.38949758 C252.70280103 442.39128615 251.88352152 442.39307472 251.03941536 442.39491749 C250.08774361 442.39937533 249.13607186 442.40383318 248.15556157 442.40842611 C247.11812868 442.40824174 246.0806958 442.40805738 245.01182556 442.40786743 C243.90332713 442.41154412 242.7948287 442.41522081 241.65273941 442.41900891 C237.93054169 442.43004019 234.20837189 442.43388871 230.48616028 442.43769836 C227.82013789 442.44396355 225.15411846 442.45059782 222.48809814 442.45761108 C214.48114418 442.47735206 206.474189 442.48743992 198.46721679 442.49633887 C194.69157728 442.50072673 190.91593916 442.50609235 187.14030075 442.51132774 C174.57969771 442.52833969 162.01909553 442.54283131 149.45848274 442.55007648 C146.20061873 442.55198622 142.94275473 442.55390657 139.68489075 442.55586243 C138.47037724 442.55658804 138.47037724 442.55658804 137.23132811 442.55732831 C124.13085323 442.56561907 111.03046994 442.59093997 97.93003501 442.6234431 C84.46344469 442.65658068 70.99690079 442.67453139 57.5302695 442.67772073 C49.97609138 442.67987992 42.42204671 442.68854136 34.86790848 442.7141819 C28.43086082 442.73598087 21.99397905 442.74389456 15.55689867 442.73421512 C12.27797655 442.72969642 8.9994644 442.7336339 5.72057533 442.75097656 C-7.46692994 442.81679319 -19.62337584 442.83988175 -32.123703 438.26069641 C-32.96672407 437.95804021 -33.80974514 437.65538401 -34.6783123 437.3435564 C-36.61855939 436.6161336 -38.49172666 435.81423185 -40.373703 434.94819641 C-41.03934265 434.64679749 -41.7049823 434.34539856 -42.39079285 434.03486633 C-67.14762637 422.54724121 -85.9600661 401.59895178 -95.436203 376.07319641 C-101.25277013 358.77649903 -101.56263843 341.26586957 -101.5118866 323.18061829 C-101.51596124 320.7160621 -101.52130809 318.25150775 -101.52781677 315.78695679 C-101.53998678 309.83479374 -101.53832969 303.88273542 -101.52957885 297.93057549 C-101.52275566 293.08564523 -101.52190539 288.24074669 -101.5251503 283.39581299 C-101.52561 282.70170664 -101.5260697 282.00760029 -101.52654333 281.29246041 C-101.52750267 279.88163744 -101.52847531 278.47081449 -101.5294611 277.05999154 C-101.53798046 263.88418441 -101.52823546 250.70844028 -101.51206 237.5326435 C-101.49865997 226.26959969 -101.50098904 215.0066487 -101.51481628 203.74360657 C-101.53093356 190.60938193 -101.53715681 177.47521225 -101.52797949 164.3409791 C-101.52702402 162.93584602 -101.5260809 161.53071293 -101.5251503 160.12557983 C-101.52468747 159.43453823 -101.52422465 158.74349663 -101.52374779 158.03151438 C-101.52117626 153.20212796 -101.52548883 148.37277693 -101.53258896 143.543396 C-101.54196639 137.02279241 -101.53512653 130.50232162 -101.51790619 123.98173332 C-101.51397362 121.60311609 -101.51501919 119.224484 -101.52169418 116.84587288 C-101.59824404 86.77158171 -97.23484857 59.8170061 -77.123703 36.26069641 C-76.14337097 35.06380188 -76.14337097 35.06380188 -75.14323425 33.84272766 C-56.59132338 12.0467668 -28.45099572 -0.11055673 0 0 Z M130.876297 75.26069641 C128.30064175 79.93440195 127.19244265 84.67098725 126.188797 89.88569641 C125.93742981 91.15671204 125.68606262 92.42772766 125.42707825 93.73725891 C124.96881213 96.66886203 124.75745176 99.30654329 124.876297 102.26069641 C123.67875793 102.35866516 122.48121887 102.45663391 121.24739075 102.55757141 C97.79744399 104.64184974 73.23738579 111.1322887 56.876297 129.26069641 C45.49561442 143.87763452 40.53407651 160.26310563 42.34114075 178.81147766 C44.94502866 195.59420051 53.42486974 209.01519828 66.876297 219.32319641 C81.88605327 229.60385139 98.43189502 235.72104397 115.39631653 241.97358704 C146.69764941 253.55073218 146.69764941 253.55073218 151.876297 263.26069641 C153.83984538 269.15134155 153.55533637 275.55628372 151.09895325 281.28022766 C146.22099832 289.18157958 138.57030044 292.92912276 129.876297 295.26069641 C107.66276589 300.36584523 83.29922677 295.74824339 63.876297 284.26069641 C58.6774037 280.82372231 53.54430661 277.04223835 49.22395325 272.53804016 C47.75923976 270.9761428 47.75923976 270.9761428 44.688797 270.13569641 C39.02082687 270.3215315 36.69045878 273.32545013 32.876297 277.26069641 C31.70963033 278.42736308 30.54296366 279.59402974 29.376297 280.76069641 C28.81555481 281.33432922 28.25481262 281.90796204 27.67707825 282.49897766 C25.10546094 285.01481151 22.35201956 287.29934522 19.57551575 289.58491516 C16.88549853 292.23782869 15.89767042 294.29889233 15.813797 298.07319641 C19.81352959 310.0723942 37.95898763 318.90403052 48.766922 324.36616516 C56.21778491 327.9303466 64.07696249 330.57416569 71.876297 333.26069641 C71.71959534 333.92601379 71.56289368 334.59133118 71.40144348 335.27680969 C70.69386118 338.31051268 70.00370019 341.34792639 69.313797 344.38569641 C69.06694153 345.43241516 68.82008606 346.47913391 68.56575012 347.55757141 C66.81898619 354.89632949 66.81898619 354.89632949 67.876297 362.26069641 C69.76751492 364.51795652 71.24922548 365.94716065 73.876297 367.26069641 C76.58926305 367.38403853 79.27553915 367.44909652 81.98957825 367.46382141 C82.79614365 367.46952148 83.60270905 367.47522156 84.43371582 367.48109436 C86.14267158 367.49054836 87.8516456 367.49707993 89.56062317 367.50093079 C92.16812741 367.51061961 94.77483777 367.54163141 97.38215637 367.57319641 C99.04295899 367.57972826 100.70376724 367.58497802 102.36457825 367.58882141 C103.53045219 367.60734161 103.53045219 367.60734161 104.71987915 367.62623596 C109.28910705 367.60755214 112.2453306 367.10067289 115.876297 364.26069641 C117.00043278 362.51446372 117.00043278 362.51446372 117.501297 360.44819641 C117.8396759 359.27257141 117.8396759 359.27257141 118.18489075 358.07319641 C120.87471709 347.782971 120.87471709 347.782971 121.876297 337.26069641 C123.80408997 337.31290344 123.80408997 337.31290344 125.77082825 337.36616516 C130.854788 337.36119745 135.59777048 336.60816976 140.563797 335.57319641 C141.43592834 335.39313049 142.30805969 335.21306458 143.20661926 335.02754211 C164.99450453 330.33566102 185.1506935 320.15701707 197.876297 301.26069641 C206.81487394 286.06683291 210.56654434 268.4916173 206.751297 251.07319641 C201.29845928 232.26595522 189.11490949 220.97137856 172.54011536 211.49604797 C160.16560582 204.69818076 147.02617206 200.02055944 133.73054504 195.383255 C125.95933862 192.65302969 118.40354467 189.75468398 111.02082825 186.08491516 C110.37159897 185.76327896 109.72236969 185.44164276 109.0534668 185.11026001 C102.83391114 181.91454433 98.35590918 178.95564929 95.876297 172.26069641 C94.45956731 165.7655357 94.29997441 160.04262562 97.876297 154.26069641 C103.40683054 147.29512647 111.91617658 145.36294539 120.251297 143.51069641 C144.18889109 141.85982785 169.08894286 146.80839259 188.21614075 162.13569641 C188.80524231 162.67194641 189.39434387 163.20819641 190.001297 163.76069641 C193.17983264 166.52464045 194.67298493 167.43956075 198.876297 167.26069641 C204.68232619 164.02172463 209.05585104 159.34368582 213.688797 154.63569641 C214.46416809 153.85968079 215.23953918 153.08366516 216.03840637 152.28413391 C221.06808382 147.65364586 221.06808382 147.65364586 223.188797 141.44819641 C222.79273223 137.4083358 221.59993205 136.23925298 218.876297 133.26069641 C216.77559548 131.56184413 214.71135696 129.98643007 212.501297 128.44819641 C211.88697815 128.01732727 211.2726593 127.58645813 210.63972473 127.14253235 C193.58329202 114.89100348 193.58329202 114.89100348 173.876297 109.26069641 C174.02776184 108.57032288 174.17922668 107.87994934 174.33528137 107.1686554 C175.02310135 104.0134135 175.69978102 100.85588045 176.376297 97.69819641 C176.61477356 96.61216125 176.85325012 95.5261261 177.09895325 94.40718079 C178.85451128 86.39695898 178.85451128 86.39695898 178.876297 78.26069641 C176.33492541 75.10115336 174.7300704 73.54528755 170.876297 72.26069641 C168.36056157 72.14028265 165.87332416 72.07264758 163.35676575 72.05757141 C162.6205751 72.05187134 161.88438446 72.04617126 161.12588501 72.04029846 C159.56833834 72.03085885 158.01077179 72.0243186 156.45320129 72.02046204 C154.08280614 72.0107741 151.71328497 71.97974966 149.34309387 71.94819641 C147.82682296 71.941664 146.31054586 71.93641446 144.79426575 71.93257141 C144.09093613 71.92022461 143.38760651 71.90787781 142.66296387 71.89515686 C138.00306034 71.91601202 134.80160124 72.73932775 130.876297 75.26069641 Z " fill="#00D54B" transform="translate(101.12370300292969,-0.2606964111328125)"></path><path d="M0 0 C1.00445663 -0.00241196 2.00891327 -0.00482391 3.04380798 -0.00730896 C5.16279049 -0.00633127 7.28179879 0.00704358 9.40063477 0.03198242 C12.64492406 0.0663277 15.88649474 0.05262751 19.13085938 0.03320312 C21.19141785 0.04010065 23.25196929 0.04977219 25.3125 0.0625 C26.28236343 0.05754013 27.25222687 0.05258026 28.2514801 0.04747009 C34.91840635 0.1641954 34.91840635 0.1641954 38.10351562 2.36865234 C39.62318555 4.679609 40.69222625 6.76394446 41.6484375 9.359375 C42.02282959 10.3589624 42.39722168 11.3585498 42.78295898 12.38842773 C43.19360596 13.51966064 43.60425293 14.65089355 44.02734375 15.81640625 C44.71582397 17.67084351 44.71582397 17.67084351 45.41821289 19.56274414 C46.50842607 22.50089746 47.59055294 25.44189579 48.66796875 28.38476562 C50.85990345 34.37132136 53.06912943 40.35146547 55.27734375 46.33203125 C58.6380176 55.4383889 61.99248425 64.54701393 65.34269142 73.65722656 C70.82022605 88.55160068 76.32407509 103.43614743 81.83984375 118.31640625 C83.48703608 122.76039557 85.13419027 127.20439903 86.78125 131.6484375 C87.18165497 132.72875748 87.58205994 133.80907745 87.99459839 134.9221344 C90.7692315 142.40993388 93.53851978 149.89969441 96.3046875 157.390625 C96.68249863 158.41339539 97.06030975 159.43616577 97.4495697 160.4899292 C99.26684078 165.41010588 101.08213971 170.33099227 102.89331055 175.25341797 C105.75551437 183.02454741 108.62895386 190.78688617 111.64453125 198.5 C112.07870361 199.61842285 112.51287598 200.7368457 112.96020508 201.88916016 C113.71227461 203.81469227 114.4761699 205.73568601 115.2565918 207.64990234 C117.24859503 212.7580436 118.97850649 218.1478312 117.58984375 223.62890625 C116.09594727 225.85473633 116.09594727 225.85473633 113.58984375 227.62890625 C110.60914862 228.02663244 108.00580072 228.19037684 105.02734375 228.16015625 C103.78488892 228.16589661 103.78488892 228.16589661 102.51733398 228.17175293 C100.76903058 228.1744705 99.02068641 228.16712006 97.27246094 228.15039062 C94.59868598 228.12897707 91.92759779 228.15019569 89.25390625 228.17578125 C87.5533795 228.17313794 85.85285441 228.1680129 84.15234375 228.16015625 C83.3543335 228.16825317 82.55632324 228.1763501 81.73413086 228.18469238 C78.34637704 228.12755439 76.15523448 228.0881303 73.47332764 225.90982056 C71.4717952 223.4859485 70.57139595 221.58479936 69.57519531 218.61669922 C69.23514465 217.62241913 68.89509399 216.62813904 68.54473877 215.60372925 C68.01792511 214.00357468 68.01792511 214.00357468 67.48046875 212.37109375 C67.10879578 211.27169464 66.7371228 210.17229553 66.35418701 209.0395813 C65.5722463 206.71980738 64.79594426 204.3981262 64.02490234 202.07470703 C62.84077588 198.50671493 61.64074481 194.94439749 60.4375 191.3828125 C59.68006337 189.12921734 58.92352183 186.8753211 58.16796875 184.62109375 C57.6290097 183.01486649 57.6290097 183.01486649 57.0791626 181.37619019 C56.75172058 180.38821442 56.42427856 179.40023865 56.08691406 178.38232422 C55.79697571 177.51058563 55.50703735 176.63884705 55.20831299 175.74069214 C54.58984375 173.62890625 54.58984375 173.62890625 54.58984375 171.62890625 C26.20984375 171.62890625 -2.17015625 171.62890625 -31.41015625 171.62890625 C-32.40015625 175.25890625 -33.39015625 178.88890625 -34.41015625 182.62890625 C-36.3069046 188.69915977 -38.31301164 194.72936063 -40.34326172 200.75610352 C-40.97461035 202.63983968 -41.59889228 204.52595812 -42.21630859 206.41430664 C-43.1167236 209.16716022 -44.0382814 211.91210316 -44.96484375 214.65625 C-45.23585907 215.49792221 -45.50687439 216.33959442 -45.78610229 217.20677185 C-47.42485026 221.96749561 -48.75498273 225.1620482 -53.41015625 227.62890625 C-56.20241089 228.03135192 -58.5916788 228.21440443 -61.37890625 228.1953125 C-62.13683472 228.20151108 -62.89476318 228.20770966 -63.67565918 228.21409607 C-65.2725293 228.22117614 -66.86947352 228.21805183 -68.46630859 228.20532227 C-70.90340433 228.1914447 -73.3366651 228.22555889 -75.7734375 228.26367188 C-77.32942802 228.26462309 -78.88542332 228.26276411 -80.44140625 228.2578125 C-81.16549683 228.27107071 -81.8895874 228.28432892 -82.63562012 228.29798889 C-86.38587643 228.22929307 -88.31505472 227.695578 -91.40820312 225.52709961 C-93.96945449 221.81921974 -93.99018577 220.07147874 -93.41015625 215.62890625 C-92.6081143 212.89813171 -91.75128529 210.35672519 -90.71875 207.71875 C-90.42681763 206.94460754 -90.13488525 206.17046509 -89.83410645 205.37286377 C-89.19118194 203.67213471 -88.54294385 201.97340725 -87.8901062 200.27645874 C-86.81624634 197.48475004 -85.75620393 194.68812344 -84.69946289 191.88989258 C-83.53709777 188.81275472 -82.37371297 185.73603303 -81.20628357 182.66081238 C-76.66888408 170.70652172 -72.23251286 158.71491192 -67.79425049 146.72357178 C-65.59293866 140.77674013 -63.38675641 134.83171462 -61.18120193 128.88645554 C-59.93013919 125.51390811 -58.67943157 122.141229 -57.42871094 118.76855469 C-56.92590362 117.41271962 -56.423096 116.05688466 -55.92028809 114.7010498 C-55.4169104 113.34366877 -54.91353312 111.98628759 -54.41015625 110.62890625 C-53.90677938 109.27152491 -53.4034021 107.91414373 -52.90002441 106.5567627 C-52.65102984 105.88533737 -52.40203527 105.21391205 -52.14549541 104.5221405 C-51.39253101 102.49176408 -50.63954157 100.46139695 -49.8865509 98.43103027 C-48.88894174 95.74105263 -47.89146861 93.05102459 -46.89408875 90.36096191 C-44.46029532 83.79720484 -42.02443718 77.23422653 -39.58422852 70.67285156 C-35.60671156 59.974697 -31.63346733 49.27561791 -27.7429657 38.54542542 C-26.27046937 34.48571497 -24.78868703 30.42942495 -23.30612183 26.37338257 C-22.6347657 24.52759971 -21.96837743 22.680001 -21.30740356 20.83047485 C-20.41382272 18.33024139 -19.50378474 15.83659832 -18.58984375 13.34375 C-18.33878372 12.62607452 -18.08772369 11.90839905 -17.82905579 11.16897583 C-14.19172545 1.39305192 -9.70756949 -0.13298179 0 0 Z M11.58984375 39.62890625 C11.33643219 40.37883347 11.08302063 41.12876068 10.82192993 41.90141296 C8.38305387 49.11830824 5.94329126 56.33490301 3.50263405 63.5511961 C2.24918445 67.25736557 0.99602872 70.96363374 -0.25634766 74.67016602 C-1.71029809 78.97314564 -3.16548453 83.27570626 -4.62109375 87.578125 C-4.86077629 88.28695705 -5.10045883 88.99578911 -5.34740448 89.72610092 C-7.99433354 97.55151328 -10.65886465 105.37025619 -13.36816406 113.17431641 C-13.6037459 113.85363755 -13.83932774 114.5329587 -14.08204842 115.23286533 C-15.19904194 118.4525669 -16.31965271 121.67088818 -17.44589233 124.88737488 C-17.83709259 126.01226822 -18.22829285 127.13716156 -18.63134766 128.29614258 C-18.9763028 129.28222 -19.32125793 130.26829742 -19.67666626 131.28425598 C-20.5096785 133.53758524 -20.5096785 133.53758524 -20.41015625 135.62890625 C0.70984375 135.62890625 21.82984375 135.62890625 43.58984375 135.62890625 C33.48502944 103.55199571 23.09505808 71.57658361 12.58984375 39.62890625 C12.25984375 39.62890625 11.92984375 39.62890625 11.58984375 39.62890625 Z " fill="#00D54B" transform="translate(1506.41015625,107.37109375)"></path><path d="M0 0 C19.54524221 14.57620953 29.19646213 35.48994307 33 59 C36.21192659 83.683819 32.14267186 107.29263891 20 129 C19.52820312 129.85335937 19.05640625 130.70671875 18.5703125 131.5859375 C8.70735185 147.75185525 -7.6084701 158.24386227 -25.78515625 162.6796875 C-44.3822873 166.33403627 -62.74509568 164.11330162 -79 154 C-82.56225675 151.20406967 -85.82178788 148.22192034 -89 145 C-89.99947406 143.99947434 -90.99937869 142.9993783 -92 142 C-92.00808685 142.83049866 -92.01617371 143.66099731 -92.02450562 144.5166626 C-92.10245651 152.34453854 -92.18974872 160.17224262 -92.28752708 167.999897 C-92.33746627 172.02414759 -92.38379645 176.04837223 -92.421875 180.07275391 C-92.45875796 183.9567365 -92.50512595 187.84050077 -92.55806351 191.72429657 C-92.57659149 193.20580972 -92.59170537 194.68736965 -92.60334396 196.16895294 C-92.62023402 198.2446985 -92.6492747 200.3199458 -92.68115234 202.39550781 C-92.69447601 203.57687317 -92.70779968 204.75823853 -92.7215271 205.97540283 C-92.99303254 208.9243238 -93.34549961 210.5737108 -95 213 C-99.9519352 216.30129013 -105.87783382 215.37187267 -111.6784668 215.37060547 C-113.9263893 215.37497839 -116.17234679 215.41130369 -118.41992188 215.44921875 C-119.8515558 215.45508737 -121.28319903 215.45905646 -122.71484375 215.4609375 C-124.01542725 215.46915527 -125.31601074 215.47737305 -126.65600586 215.48583984 C-130 215 -130 215 -132.39282227 213.15869141 C-135.52545613 208.95107351 -135.14584085 204.7160232 -135.14044189 199.70046997 C-135.14341302 198.84388853 -135.14638414 197.98730709 -135.1494453 197.10476863 C-135.15814314 194.22364455 -135.15964145 191.34256197 -135.16113281 188.46142578 C-135.16576017 186.40015575 -135.17078472 184.33888658 -135.17617798 182.27761841 C-135.18931079 176.67020148 -135.19574851 171.06279652 -135.20018864 165.45536661 C-135.20311757 161.95418924 -135.20722201 158.45301516 -135.21169281 154.95183945 C-135.22536925 144.00348237 -135.23503553 133.0551328 -135.2388947 122.10676777 C-135.24337779 109.45700734 -135.26093675 96.80735483 -135.2898953 84.15762722 C-135.31148892 74.38686657 -135.32159772 64.61613633 -135.32293582 54.84535205 C-135.32398539 49.0062253 -135.32992567 43.16719999 -135.34775543 37.3280983 C-135.36419628 31.83699855 -135.36641101 26.34607693 -135.35761642 20.8549614 C-135.35684394 18.83813247 -135.3612164 16.82129412 -135.37107468 14.80448914 C-135.38373247 12.05394463 -135.37795104 9.30403691 -135.36749268 6.55349731 C-135.37554908 5.75300874 -135.38360548 4.95252016 -135.39190602 4.12777436 C-135.35132706 -0.42664937 -134.86433147 -3.40282198 -132 -7 C-127.23505892 -10.17662739 -121.80244627 -9.37190996 -116.23095703 -9.37060547 C-114.13881562 -9.37497117 -112.04879839 -9.41127621 -109.95703125 -9.44921875 C-108.61979885 -9.45508899 -107.28255647 -9.459057 -105.9453125 -9.4609375 C-104.73375488 -9.46915527 -103.52219727 -9.47737305 -102.27392578 -9.48583984 C-98.37711198 -8.90756546 -96.74278042 -7.78179221 -94 -5 C-92.99740493 -1.99221479 -92.69685358 0.53820647 -92.4375 3.6875 C-92.35371094 4.68136719 -92.26992187 5.67523438 -92.18359375 6.69921875 C-92.12300781 7.45847656 -92.06242187 8.21773437 -92 9 C-91.55011719 8.50371094 -91.10023437 8.00742188 -90.63671875 7.49609375 C-67.23641987 -17.21724795 -27.59579426 -18.82234146 0 0 Z M-80.75 36.625 C-92.47743993 51.17366369 -94.21366249 68.01901228 -93 86 C-91.48952034 98.31040926 -86.41172876 110.6360979 -77 119 C-68.22504781 125.69948524 -57.08165149 129.38520644 -46 128 C-38.82867088 126.67083124 -32.78440224 124.47705334 -27 120 C-26.40574219 119.54238281 -25.81148437 119.08476562 -25.19921875 118.61328125 C-15.5899812 110.15459542 -10.75287131 96.0968408 -9.82421875 83.64257812 C-8.87369886 65.81354074 -10.78277737 48.54660104 -23.1015625 34.625 C-31.80870288 26.25629971 -41.83768987 23.65740436 -53.62109375 23.7890625 C-63.96734243 24.43495548 -73.6164185 29.08378527 -80.75 36.625 Z " fill="#00D54B" transform="translate(1777,175)"></path><path d="M0 0 C3.51457207 2.48295667 6.78100931 5.14680371 10 8 C10.61359375 8.51949219 11.2271875 9.03898437 11.859375 9.57421875 C22.82692212 19.56072381 33.0411399 37.83312448 34.20845032 52.64500427 C34.31373115 55.82716204 34.35584722 59.0036227 34.37109375 62.1875 C34.38012222 63.36280273 34.3891507 64.53810547 34.39845276 65.74902344 C34.41292942 68.23353543 34.42183555 70.71808531 34.42553711 73.20263672 C34.43737394 76.95998463 34.48653913 80.71565728 34.53710938 84.47265625 C34.62394801 97.22552283 34.46138435 108.3129794 29 120 C28.50512085 121.15894775 28.50512085 121.15894775 28.00024414 122.34130859 C19.65244114 141.00380681 5.02250914 154.92133026 -14.03369141 162.31591797 C-31.82843723 168.50673965 -52.21615199 167.80328131 -69.25 159.875 C-75.73027808 156.44898122 -80.87192402 152.19859962 -86 147 C-86.99947406 145.99947434 -87.99937869 144.9993783 -89 144 C-89.00808685 144.83049866 -89.01617371 145.66099731 -89.02450562 146.5166626 C-89.10245651 154.34453854 -89.18974872 162.17224262 -89.28752708 169.999897 C-89.33746627 174.02414759 -89.38379645 178.04837223 -89.421875 182.07275391 C-89.45875796 185.9567365 -89.50512595 189.84050077 -89.55806351 193.72429657 C-89.57659149 195.20580972 -89.59170537 196.68736965 -89.60334396 198.16895294 C-89.62023402 200.2446985 -89.6492747 202.3199458 -89.68115234 204.39550781 C-89.69447601 205.57687317 -89.70779968 206.75823853 -89.7215271 207.97540283 C-89.99303254 210.9243238 -90.34549961 212.5737108 -92 215 C-96.9519352 218.30129013 -102.87783382 217.37187267 -108.6784668 217.37060547 C-110.9263893 217.37497839 -113.17234679 217.41130369 -115.41992188 217.44921875 C-116.8515558 217.45508737 -118.28319903 217.45905646 -119.71484375 217.4609375 C-121.01542725 217.46915527 -122.31601074 217.47737305 -123.65600586 217.48583984 C-127 217 -127 217 -129.39282227 215.15869141 C-132.52545613 210.95107351 -132.14584085 206.7160232 -132.14044189 201.70046997 C-132.14341302 200.84388853 -132.14638414 199.98730709 -132.1494453 199.10476863 C-132.15814314 196.22364455 -132.15964145 193.34256197 -132.16113281 190.46142578 C-132.16576017 188.40015575 -132.17078472 186.33888658 -132.17617798 184.27761841 C-132.18931079 178.67020148 -132.19574851 173.06279652 -132.20018864 167.45536661 C-132.20311757 163.95418924 -132.20722201 160.45301516 -132.21169281 156.95183945 C-132.22536925 146.00348237 -132.23503553 135.0551328 -132.2388947 124.10676777 C-132.24337779 111.45700734 -132.26093675 98.80735483 -132.2898953 86.15762722 C-132.31148892 76.38686657 -132.32159772 66.61613633 -132.32293582 56.84535205 C-132.32398539 51.0062253 -132.32992567 45.16719999 -132.34775543 39.3280983 C-132.36419628 33.83699855 -132.36641101 28.34607693 -132.35761642 22.8549614 C-132.35684394 20.83813247 -132.3612164 18.82129412 -132.37107468 16.80448914 C-132.38373247 14.05394463 -132.37795104 11.30403691 -132.36749268 8.55349731 C-132.37554908 7.75300874 -132.38360548 6.95252016 -132.39190602 6.12777436 C-132.35132706 1.57335063 -131.86433147 -1.40282198 -129 -5 C-124.23505892 -8.17662739 -118.80244627 -7.37190996 -113.23095703 -7.37060547 C-111.13881562 -7.37497117 -109.04879839 -7.41127621 -106.95703125 -7.44921875 C-105.61979885 -7.45508899 -104.28255647 -7.459057 -102.9453125 -7.4609375 C-101.73375488 -7.46915527 -100.52219727 -7.47737305 -99.27392578 -7.48583984 C-95.39563031 -6.91031352 -93.76489966 -5.72303607 -91 -3 C-89.64908472 -0.29816945 -89.66141942 2.11808206 -89.4375 5.125 C-89.35371094 6.22070312 -89.26992187 7.31640625 -89.18359375 8.4453125 C-89.12300781 9.28835937 -89.06242187 10.13140625 -89 11 C-88.55011719 10.50371094 -88.10023437 10.00742188 -87.63671875 9.49609375 C-65.26337088 -14.13267244 -27.32830022 -16.91011464 0 0 Z M-77.75 38.625 C-89.47743993 53.17366369 -91.21366249 70.01901228 -90 88 C-88.58143129 99.561335 -83.95495731 112.12814768 -75 120 C-66.28699422 126.78622726 -56.45870306 130.75088346 -45.28125 130.28515625 C-34.60798273 128.95099784 -26.21657001 125.01841112 -19 117 C-18.34 116.29875 -17.68 115.5975 -17 114.875 C-6.87240564 100.31658311 -4.95379639 81.86723613 -7.32519531 64.63720703 C-9.61460002 51.9340746 -14.73745301 40.08890309 -25.390625 32.23828125 C-42.10632777 21.64996032 -63.96061569 24.04765088 -77.75 38.625 Z " fill="#00D54B" transform="translate(1966,173)"></path><path d="M0 0 C1.9480957 -0.02416992 1.9480957 -0.02416992 3.93554688 -0.04882812 C32.43682746 -0.06300082 57.90723976 11.76290347 78.125 31.4375 C79.66450913 33.04481785 81.18699849 34.66870736 82.6875 36.3125 C83.65236328 37.364375 83.65236328 37.364375 84.63671875 38.4375 C87.35394495 41.68043663 89.05572207 44.20699395 89.3125 48.5 C88.57628153 52.99093267 87.85683615 54.08622967 84.6875 57.3125 C81.3442126 59.6268267 77.85287086 61.6292978 74.3125 63.625 C73.37921875 64.17478516 72.4459375 64.72457031 71.484375 65.29101562 C70.57429687 65.80986328 69.66421875 66.32871094 68.7265625 66.86328125 C67.90365723 67.33419189 67.08075195 67.80510254 66.23291016 68.2902832 C63.17227734 69.51940939 60.95947628 69.62967285 57.6875 69.3125 C53.92772822 66.75265539 51.20487231 63.8113582 48.25 60.375 C36.87682364 47.26153156 21.51397887 40.4061198 4.23046875 39.0390625 C-13.38721529 38.52496622 -29.59098705 43.56417549 -43.07421875 55.10546875 C-59.53071295 71.33220386 -65.2801536 94.60806576 -65.5 117 C-65.44210172 139.5942239 -59.49225906 162.69021762 -43.3125 179.3125 C-27.49647958 193.3337947 -10.71877626 196.44037732 9.75146484 195.55078125 C24.9967376 194.31351315 38.18354325 186.11430051 48.6875 175.3125 C50.56829106 172.98851263 52.35856552 170.63795281 54.08203125 168.1953125 C55.89985808 166.06345719 57.01163873 165.14840639 59.6875 164.3125 C63.95784445 164.75780528 67.05649631 165.79215609 70.76171875 167.9296875 C71.67630859 168.45433594 72.59089844 168.97898437 73.53320312 169.51953125 C74.47099609 170.06996094 75.40878906 170.62039063 76.375 171.1875 C77.7990918 172.00154297 77.7990918 172.00154297 79.25195312 172.83203125 C89.05840113 178.50908325 89.05840113 178.50908325 90.625 183 C90.78936124 191.71114578 84.05563617 197.5979788 78.421875 203.484375 C77.06835938 204.88429688 77.06835938 204.88429688 75.6875 206.3125 C75.05328125 206.99828125 74.4190625 207.6840625 73.765625 208.390625 C57.11785562 225.98969549 31.43105588 235.1498001 7.6875 236.3125 C-22.16085225 236.90848465 -51.9873671 230.29741955 -74.3125 209.3125 C-75.22128906 208.49394531 -76.13007812 207.67539062 -77.06640625 206.83203125 C-98.06742822 187.05777273 -109.68750117 157.71949171 -110.60209656 129.09651184 C-110.68168593 125.33479362 -110.6976857 121.57495994 -110.6875 117.8125 C-110.68662384 117.02013947 -110.68574768 116.22777893 -110.68484497 115.41140747 C-110.5597604 81.04864187 -100.03107232 51.64692957 -75.51513672 27.07373047 C-69.69677973 21.46846352 -63.3151039 17.28978539 -56.3125 13.3125 C-55.33796875 12.74917969 -54.3634375 12.18585938 -53.359375 11.60546875 C-36.85478247 2.69930201 -18.53801794 -0.04559276 0 0 Z " fill="#00D54B" transform="translate(732.3125,103.6875)"></path><path d="M0 0 C0.717323 -0.00478363 1.434646 -0.00956726 2.17370605 -0.01449585 C3.68662719 -0.01789036 5.19962212 -0.00871885 6.71240234 0.01220703 C9.02477956 0.03898756 11.3323045 0.01245316 13.64453125 -0.01953125 C15.11719818 -0.01622706 16.5898621 -0.00982062 18.0625 0 C18.75114136 -0.01012115 19.43978271 -0.02024231 20.14929199 -0.03067017 C23.58589829 0.05298393 25.20006883 0.34621492 27.71087646 2.75593567 C29.97294492 6.36968957 30.04739745 8.59411159 30.07714844 12.84106445 C30.08748611 13.54405167 30.09782379 14.24703888 30.10847473 14.97132874 C30.13784002 17.28190262 30.13940048 19.59159815 30.140625 21.90234375 C30.155611 23.50947229 30.17233904 25.11658546 30.19073486 26.72367859 C30.23437392 30.94374306 30.25439967 35.1635998 30.26947021 39.3838501 C30.28905384 43.69417588 30.3310224 48.00427773 30.37109375 52.31445312 C30.44635848 60.76426426 30.49667237 69.21398737 30.53125 77.6640625 C30.93668533 77.18240631 31.34212067 76.70075012 31.75984192 76.20449829 C32.29518051 75.57321014 32.8305191 74.941922 33.38208008 74.29150391 C33.91126541 73.66547272 34.44045074 73.03944153 34.985672 72.3944397 C40.8910049 65.78302741 49.40487033 61.82432126 57.53125 58.6640625 C58.31242187 58.34308594 59.09359375 58.02210938 59.8984375 57.69140625 C74.77833638 52.58089785 93.51501923 54.50165374 107.65625 60.7890625 C121.56475691 68.26795466 130.06502917 80.81011457 134.53125 95.6640625 C136.36005548 102.9696464 136.83289299 109.94936675 136.83764648 117.46020508 C136.84597 118.59480164 136.85429352 119.72939819 136.86286926 120.89837646 C136.88680877 124.61848451 136.89571801 128.33841706 136.90234375 132.05859375 C136.91131625 134.65549266 136.9204382 137.25239106 136.92970276 139.84928894 C136.94614728 145.27673956 136.95391839 150.70411993 136.95678711 156.1315918 C136.96043408 162.39849938 136.99043574 168.66492083 137.03219169 174.93167955 C137.07106628 180.97908572 137.08237933 187.02622141 137.08351326 193.07376671 C137.08772254 195.64025211 137.10018497 198.20673767 137.12103081 200.77314186 C137.14782483 204.35416208 137.14315628 207.93382401 137.13061523 211.51489258 C137.15286667 213.10541695 137.15286667 213.10541695 137.17556763 214.72807312 C137.10400741 221.88785931 137.10400741 221.88785931 134.2021637 225.82044983 C130.76456223 228.19327289 128.59657705 228.3092201 124.4375 228.328125 C123.76835571 228.33290863 123.09921143 228.33769226 122.40979004 228.34262085 C121.00119666 228.34600906 119.59252348 228.33688172 118.18408203 228.31591797 C116.03629114 228.28912539 113.89372347 228.31569016 111.74609375 228.34765625 C110.37238438 228.34435195 108.99867824 228.33794526 107.625 228.328125 C106.38427734 228.32248535 105.14355469 228.3168457 103.86523438 228.31103516 C99.46527833 227.45720654 98.23426049 226.23048206 95.53125 222.6640625 C94.80957793 219.38522249 94.87124732 216.17803209 94.91943359 212.83178711 C94.91376877 211.84571472 94.90810394 210.85964233 94.90226746 209.84368896 C94.88876628 206.58420789 94.90971941 203.32583889 94.9296875 200.06640625 C94.92418563 197.7930068 94.91605951 195.51961232 94.90542603 193.24623108 C94.88251725 187.25514443 94.88676403 181.26442217 94.89923096 175.27331543 C94.91751314 165.70966896 94.9074182 156.14623928 94.87337112 146.58264351 C94.86730293 143.25471051 94.88048781 139.92724616 94.89535522 136.59934998 C95.16086336 116.89563522 95.16086336 116.89563522 86.53125 99.6640625 C79.09173067 93.51837262 70.8305232 92.91392907 61.53125 93.6640625 C52.02034784 95.33584589 43.38732063 99.63820224 37.59375 107.4765625 C31.66928106 116.74661389 30.37885262 126.17931664 30.40527344 136.98657227 C30.4034053 137.90600616 30.40153717 138.82544006 30.39961243 139.7727356 C30.3956209 141.76156396 30.39353474 143.75039687 30.39315033 145.7392292 C30.38972323 149.96825241 30.36835271 154.19712345 30.34791946 158.4260931 C30.30993424 166.29344238 30.27864073 174.16062457 30.28076172 182.02807617 C30.28154786 187.50762668 30.25823352 192.98661343 30.2188797 198.46601677 C30.2084097 200.55238245 30.20690299 202.63881311 30.21453094 204.72519112 C30.2241329 207.64106695 30.2030106 210.55522655 30.17480469 213.47094727 C30.18500137 214.33186478 30.19519806 215.19278229 30.20570374 216.07978821 C30.1305356 220.41071967 29.92199873 222.15563146 27.19940186 225.69819641 C23.76597543 228.22790872 21.67770448 228.30885134 17.4375 228.328125 C16.76835571 228.33290863 16.09921143 228.33769226 15.40979004 228.34262085 C14.00119666 228.34600906 12.59252348 228.33688172 11.18408203 228.31591797 C9.03629114 228.28912539 6.89372347 228.31569016 4.74609375 228.34765625 C3.37238438 228.34435195 1.99867824 228.33794526 0.625 228.328125 C-0.61572266 228.32248535 -1.85644531 228.3168457 -3.13476562 228.31103516 C-7.50111941 227.46372719 -8.75579527 226.16735964 -11.46875 222.6640625 C-12.18518996 219.72464457 -12.14010763 216.87226943 -12.09693909 213.85827637 C-12.10403347 212.97140121 -12.11112786 212.08452605 -12.11843723 211.17077589 C-12.13604082 208.19869634 -12.1179003 205.22792047 -12.09985352 202.25585938 C-12.10499142 200.12532454 -12.11227172 197.99479396 -12.12153625 195.86427307 C-12.14007468 190.07706829 -12.12709598 184.29032332 -12.10744596 178.50313759 C-12.09107847 172.45028764 -12.09986971 166.39746724 -12.10496521 160.34460449 C-12.10948828 150.17936851 -12.09360296 140.01431642 -12.06567383 129.84912109 C-12.0336211 118.09234695 -12.03363705 106.3359045 -12.0508886 94.57910681 C-12.06674557 83.27511271 -12.06002542 71.97124035 -12.04295158 60.66725159 C-12.03607423 55.85393539 -12.0371206 51.04071658 -12.04449654 46.22740173 C-12.05215066 40.56053606 -12.04006139 34.89404842 -12.01264763 29.22724724 C-12.00575361 27.14593058 -12.00567667 25.06457868 -12.01286316 22.98326302 C-12.0215348 20.14503457 -12.0056404 17.30797889 -11.9834137 14.46984863 C-11.99165446 13.64348766 -11.99989523 12.81712668 -12.00838572 11.96572447 C-11.9517545 8.05571931 -11.71860476 6.07763237 -9.65032864 2.65413666 C-6.62287743 -0.10755724 -3.90660875 -0.05741652 0 0 Z " fill="#00D54B" transform="translate(1180.46875,107.3359375)"></path><path d="M0 0 C10.67126265 9.1406371 15.65574345 21.06640043 17 35 C17.15866136 38.81300284 17.17752737 42.62373448 17.19287109 46.43969727 C17.20513733 48.13852554 17.20513733 48.13852554 17.21765137 49.87167358 C17.24237872 53.60324587 17.25898299 57.33478063 17.2734375 61.06640625 C17.27876118 62.34330763 17.28408485 63.62020901 17.28956985 64.93580437 C17.31076276 70.30011868 17.32989585 75.66441999 17.34119225 81.02876377 C17.35745073 88.69564834 17.39072009 96.36202802 17.44759309 104.02872235 C17.49098229 110.0851737 17.50693811 116.14139514 17.51332474 122.1980114 C17.5200465 124.76926216 17.53529234 127.34050527 17.55921555 129.91165352 C17.59075833 133.50472882 17.59092021 137.09652044 17.58349609 140.68969727 C17.59990143 141.7511647 17.61630676 142.81263214 17.63320923 143.90626526 C17.56508229 151.95349186 17.56508229 151.95349186 14.66716003 155.66035461 C11.2895592 158.62320202 9.54163718 158.74858488 5.08984375 158.7265625 C3.77048828 158.72527344 2.45113281 158.72398437 1.09179688 158.72265625 C0.06880493 158.69776123 0.06880493 158.69776123 -0.97485352 158.67236328 C-3.06097264 158.62503465 -5.14199359 158.63126165 -7.22851562 158.64453125 C-17.32257927 158.53593986 -17.32257927 158.53593986 -20.37182617 156.12353516 C-22.28217594 153.63197386 -22.76292953 151.83477965 -23.25 148.75 C-23.39953125 147.85796875 -23.5490625 146.9659375 -23.703125 146.046875 C-23.80109375 145.37140625 -23.8990625 144.6959375 -24 144 C-24.48726562 144.49628906 -24.97453125 144.99257813 -25.4765625 145.50390625 C-38.8046554 158.27464254 -54.87431304 162.49481457 -72.95166016 162.35620117 C-89.54629788 161.89570416 -105.27983064 156.99475042 -117.07421875 144.8671875 C-126.79963481 133.09542576 -130.16547762 119.04021125 -129 104 C-127.1808369 90.22633655 -122.00074115 79.7129764 -111 71 C-95.00536576 60.72954365 -75.9264504 58.39885512 -57.46923828 55.87451172 C-47.50734746 54.47624485 -37.47555007 52.74325857 -29 47 C-26.11597033 42.62423085 -25.35012483 39.19900136 -26 34 C-28.97206665 28.17017697 -32.90380979 25.11206832 -39.0234375 22.9140625 C-57.02395762 18.03641073 -78.34862011 22.64032115 -94.70092773 30.71313477 C-98.66061119 32.63563152 -101.6022132 33.51594147 -106 33 C-109.29173206 31.72090899 -110.59539873 30.54926915 -112.10546875 27.375 C-112.44900391 26.66859375 -112.79253906 25.9621875 -113.14648438 25.234375 C-113.49001953 24.49703125 -113.83355469 23.7596875 -114.1875 23 C-114.72020508 21.89398438 -114.72020508 21.89398438 -115.26367188 20.765625 C-115.91980484 19.40106764 -116.57097967 18.03410725 -117.21557617 16.6640625 C-117.79482567 15.43525311 -118.39246358 14.21507283 -119 13 C-119.45272634 9.00091732 -119.55215567 6.80851365 -117.25 3.4375 C-89.07811004 -20.37630754 -28.51475372 -22.41622258 0 0 Z M-29.50390625 77.78125 C-36.61225178 80.97487488 -44.32498276 82.07443497 -51.9375 83.5 C-69.36594227 86.11291771 -69.36594227 86.11291771 -84 95 C-87.70449176 100.55673765 -88.62064911 106.88654901 -87.6328125 113.43359375 C-86.01714873 119.34772103 -83.13372697 122.73783541 -78 126 C-69.72266646 130.59851863 -58.85151113 130.2388965 -49.734375 128.30859375 C-41.04450558 125.40792505 -33.10137403 120.180516 -28.91015625 111.828125 C-26.26746119 106.07250444 -24.86978454 101.52222936 -24.90234375 95.140625 C-24.90556641 94.02558594 -24.90878906 92.91054688 -24.91210938 91.76171875 C-24.92048828 90.60285156 -24.92886719 89.44398438 -24.9375 88.25 C-24.94201172 87.07566406 -24.94652344 85.90132812 -24.95117188 84.69140625 C-24.96294906 81.79421928 -24.97939674 78.89713546 -25 76 C-26.5065416 75.92447227 -26.5065416 75.92447227 -29.50390625 77.78125 Z " fill="#00D54B" transform="translate(964,177)"></path><path d="M0 0 C0.98395752 0.32145996 0.98395752 0.32145996 1.98779297 0.64941406 C13.31088509 4.49182665 24.88288545 10.01782884 33 19 C34.0625 21.875 34.0625 21.875 34 25 C30.26480501 32.32271948 24.46898808 41.61819614 16.66796875 45.015625 C10.78602473 45.48194128 6.60501695 42.0959431 1.9609375 38.8828125 C-12.66090822 29.58501615 -31.89101551 27.56369454 -48.69921875 30.6875 C-54.35614736 32.53970036 -58.11803719 34.73296453 -61 40 C-61.86080385 44.42922709 -61.62170971 47.78361144 -59.5625 51.8125 C-52.99098102 57.42233328 -44.79351048 58.89574813 -36.5 60.375 C-34.28316303 60.79716804 -32.06703298 61.22306229 -29.8515625 61.65234375 C-28.15628418 61.98081299 -28.15628418 61.98081299 -26.42675781 62.31591797 C21.57281791 71.89805043 21.57281791 71.89805043 35 91 C41.41291772 103.63995377 42.27803654 119.51899663 38.4375 133.125 C32.98371953 147.95006521 23.04215715 158.05611751 9 165 C-4.57009534 170.8731458 -18.43991715 172.3940104 -33.125 172.375 C-34.14397369 172.37468277 -34.14397369 172.37468277 -35.18353271 172.37435913 C-59.09381533 172.30025629 -83.96643406 165.58912984 -102 149 C-103.63722272 145.72555456 -103.46333755 143.64878324 -103 140 C-101.00705759 136.70011316 -98.54509234 133.88542446 -96 131 C-95.35546875 130.23558594 -94.7109375 129.47117187 -94.046875 128.68359375 C-88.58481879 122.26912017 -88.58481879 122.26912017 -83.6875 121.4375 C-78.61274667 121.47420708 -75.19475442 124.09545227 -71.0546875 126.79150391 C-55.66223374 136.77282332 -36.72048773 140.31188893 -18.625 137.25 C-12.46753109 135.81190693 -5.74125598 133.32409504 -2 128 C0.31787136 121.90351542 0.34173521 117.06722304 -2 111 C-12.46676191 104.28708845 -26.97713793 102.61555642 -39 100.5 C-59.750897 96.84864867 -80.64223523 92.20271781 -94.62890625 74.99609375 C-100.07083008 66.95504212 -101.50167656 58.02889227 -101.375 48.5 C-101.38660156 47.62730469 -101.39820313 46.75460938 -101.41015625 45.85546875 C-101.35637544 33.75478695 -96.92481161 22.66203728 -88.78125 13.6875 C-66.60275279 -7.32370788 -27.78229778 -9.12876701 0 0 Z " fill="#00D54B" transform="translate(1105,167)"></path></svg>